<svg xmlns="http://www.w3.org/2000/svg" enable-background="new 0 0 3000 3000" viewBox="0 0 3000 3000"><linearGradient id="a" x1="199.636" x2="201.226" y1="-1920.521" y2="-1920.521" gradientTransform="matrix(1238.0146 0 0 -1238.0146 -246597.844 -2375877)" gradientUnits="userSpaceOnUse"><stop offset="0" stop-color="#e961ff"/><stop offset="1" stop-color="#ff7b4d"/></linearGradient><path fill="url(#a)" d="M1944.19,1370.707c-13.424,19.699-21.375,23.528-21.375,23.528s17.745,14.789,4.622,74.589
		c-13.126,59.895-57.215,112.858-57.215,112.858l-30.964,31.15l-2.219,49.356l8.412,5.27c0,0,68.676,92.706,102.783,188.65
		c31.261,88.02,20.747,182.02,18.775,197.094l555.545-361.327L1944.19,1370.707 M554.851,618.052l121.68,2274.474l491.59-319.729
		l-137.811,86.434c0,0-32.719-47.415-69.32-157.316c-36.604-109.991-42.888-285.978-42.888-285.978s-18.394-4.622-64.609-24.217
		c-46.216-19.688-129.956-110.916-125.889-232.832c4.065-121.914,115.258-207.968,115.258-207.968l4.993-6.1v-0.092l36.602-44.644
		l90.211-45.475l-3.882-38.636l-11.832-16.36c0,0-67.935-71.54-73.665-151.584c-3.143-43.35-3.513-45.293-11.832-54.074
		c-7.116-7.393-19.778-19.87-44.734-66.457c-54.349-101.674-70.524-306.219-70.524-306.219s-30.057,1.502-47.752,1.502
		c-4.248,0-7.781-0.087-10.017-0.301c-11.553-1.201-35.495-85.59-17.376-99.917c6.069-4.806,47.903-6.408,100.974-6.408
		c106.151,0,257.285,6.408,257.285,6.408s26.316-6.509,66.271-16.429l-483.41-268.44L554.851,618.052"/><linearGradient id="b" x1="199.558" x2="201.147" y1="-1920.679" y2="-1920.679" gradientTransform="matrix(916.0977 0 0 -916.0977 -182137.875 -1757834.5)" gradientUnits="userSpaceOnUse"><stop offset="0" stop-color="#dd8968"/><stop offset="1" stop-color="#e9ce91"/></linearGradient><path fill="url(#b)" d="M1137.168,1672.287c4.251-0.842,8.599-1.235,13.011-1.235
		c54.747,0,119.714,60.447,141.222,72.631c23.155,13.078,36.205,17.836,44.088,17.876l-0.003-0.027c0,0,28.954-8.431,45.265-8.431
		c2.59,0,4.86,0.212,6.646,0.705c2.689,0.738,4.762,1.423,6.428,2.037l3.717,0.092c0,0,6.422,0.431,15.096,1
		c5.721-2.588,12.15-6.876,21.821-6.876c0.565,0,1.139,0.015,1.726,0.045c14.161,0.722,22.7,8.141,22.7,8.141l0.516,0.976
		c1.306-0.678,3.917-2.079,7.283-3.963l0,0l0,0c13.223-7.439,38.047-21.465,38.047-21.465s44.446-39.726,97.456-53.464l0,0
		c10.228-2.701,20.751-4.379,31.368-4.568c0.645-0.013,1.295-0.019,1.929-0.019c63.836-0.008,70.065,63.818,70.065,63.818
		l-4.134,75.749l23.216,94.227c0,0-7.8,43.065-43.67,70.973c-10.73,8.332-23.963,15.399-40.383,19.443
		c-7.487,1.87-15.259,2.717-23.165,2.717c-66.966,0-144.278-60.665-153.176-73.8c-2.575-3.833-3.77-5.29-4.875-5.29
		c-1.304,0-2.483,2.028-5.658,4.568c-2.293,1.8-5.662,3.888-10.933,5.658c-4.272,2.233-10.512,3.851-19.625,3.851
		c-1.054,0-2.142-0.021-3.274-0.066c-0.014,0-0.029-0.001-0.043-0.002c-2.877,0.151-5.75,0.22-8.597,0.22
		c-7.775,0-15.392-0.522-22.583-1.35c-18.567-0.665-32.285-1.282-33.828-2.416c-0.629-0.461-2.793-2.605-5.616-5.488
		c-6.169-1.763-9.775-3.07-9.775-3.07s-10.064,9.991-27.143,22.728c0,0-0.08,0.081-0.189,0.279
		c-30.371,22.69-82.592,54.215-138.637,54.215c-8.298,0-16.68-0.691-25.087-2.204c-63.147-11.378-80.947-57.664-80.968-100.087
		c-0.012-22.902,5.158-44.678,11.171-59.228c3.164-7.657,4.23-15.983,4.227-24.796c-0.005-18.327-4.634-38.763-4.639-59.681
		c-0.007-23.526,5.834-47.662,30.673-70.091C1117.436,1678.768,1127.014,1674.228,1137.168,1672.287L1137.168,1672.287
		 M1975.406,731.879c0,0-112.116,17.008-135.225,17.283c-23.014,0.372-279.046,42.242-399.759,73.392
		c-83.601,21.572-242.834,61.232-332.841,83.58c-39.955,9.92-66.271,16.429-66.271,16.429s-151.133-6.408-257.285-6.408
		c-53.071,0-94.905,1.602-100.974,6.408c-18.119,14.327,5.823,98.716,17.376,99.917c2.237,0.215,5.769,0.301,10.017,0.301
		c17.695,0,47.752-1.502,47.752-1.502s16.175,204.545,70.524,306.219c24.956,46.586,37.618,59.063,44.734,66.457
		c8.319,8.781,8.689,10.723,11.832,54.074c5.73,80.044,73.665,151.584,73.665,151.584l11.832,16.36l3.882,38.636l-90.211,45.475
		l-36.602,44.644v0.092l-4.993,6.1c0,0-111.193,86.054-115.258,207.968c-4.067,121.916,79.672,213.144,125.889,232.832
		c46.214,19.595,64.609,24.217,64.609,24.217s6.285,175.986,42.888,285.978c36.601,109.901,69.32,157.316,69.32,157.316
		l137.811-86.434l726.225-455.483l72.374-62.022c0,0,0.109-0.719,0.289-2.091c1.972-15.073,12.486-109.074-18.775-197.094
		c-34.107-95.944-102.783-188.65-102.783-188.65l-8.412-5.27l2.219-49.356l30.964-31.15c0,0,44.089-52.963,57.215-112.858
		c13.124-59.8-4.622-74.589-4.622-74.589s7.951-3.829,21.375-23.528c14.715-21.594,36.008-62.259,60.611-137.856
		c47.136-144.468,40.484-216.934,40.484-216.934s16.192,2.648,32.036,2.648c13.005,0,25.777-1.786,29.152-8.286
		c7.578-14.417,26.065-84.943,26.065-84.943l-13.308-15.528h-34.664c0,0-22.552-69.969-41.593-100.563
		C2023.933,778.65,1975.406,731.879,1975.406,731.879"/><linearGradient id="c" x1="198.69" x2="200.28" y1="-1923.744" y2="-1923.744" gradientTransform="scale(136.8833 -136.8833) rotate(-.241 455714.704 44113.621)" gradientUnits="userSpaceOnUse"><stop offset="0" stop-color="#af533e"/><stop offset="1" stop-color="#de765e"/></linearGradient><path fill="url(#c)" d="M1492.456,1397.56c-0.154,35.411-47.741,63.907-106.304,63.663
		c-58.536-0.244-105.889-29.137-105.736-64.546c0.136-35.394,47.732-63.89,106.277-63.646
		C1445.256,1333.274,1492.6,1362.167,1492.456,1397.56z"/><path fill="#9b3a69" d="M1279.776,1374.994c0,0-5.19,11.418,58.797,16.364c63.989,4.947,137.048-4.278,146.968-10.534
		c9.902-6.237,6.057,28.027,6.057,28.027s-14.624-6.859-15.688-6.354c-1.083,0.506-36.466-0.821-47.659,14.722
		c-13.883,19.244-16.825,24.273-15.408,38.959c1.435,14.694-27.739,4.611-34.815,3.492c-7.095-1.11-24.444-9.641-24.444-9.641
		s-7.527-25.318-31.763-35.184c-24.236-9.848-33.931-1.119-33.931-1.119l-13.539-24.254L1279.776,1374.994z"/><path fill="#683e57" d="M1421.111 1425.225c0 0-13.847 25.68-6.472 28.796 7.356 3.104 59.665-21.123 64.583-31.204 4.929-10.075 5.046-16.537 2.844-17.764-2.22-1.219-11.291-4.812-14.577-4.341C1464.185 1401.17 1438.288 1398.877 1421.111 1425.225zM1286.663 1409.627c0 0 5.532 18.659 22.295 25.292 16.771 6.643 27.801 16.158 41.006 17.629 13.197 1.479 5.822-16.546 2.646-23.135-3.169-6.581-25.31-21.448-38.544-25.111-13.25-3.666-20.255.594-25.95 1.416-5.686.83-13.765-3.447-13.765-3.447L1286.663 1409.627z"/><linearGradient id="d" x1="196.559" x2="198.148" y1="-1933.351" y2="-1933.351" gradientTransform="matrix(39.2188 .1647 .1647 -39.2188 -5990.537 -74428.57)" gradientUnits="userSpaceOnUse"><stop offset="0" stop-color="#af533e"/><stop offset="1" stop-color="#de765e"/></linearGradient><path fill="url(#d)" d="M1452.632,1402.561l8.141-2.834c0,0-30.219-6.319-53.508,24.29
		c-17.016,22.349,0.279,41.143,2.012,27.431c1.733-13.702,17.241-37.261,24.11-40.736
		C1440.256,1407.236,1452.632,1402.561,1452.632,1402.561z"/><path fill="#fffafd" d="M1431.915 1381.664c-.018 2.699-9.432 4.857-21.058 4.847-11.617-.026-21.049-2.229-21.04-4.928 0-2.699 9.441-4.874 21.058-4.847C1422.492 1376.764 1431.915 1378.948 1431.915 1381.664zM1461.305 1377.531c.172 1.58-5.163 3.447-11.887 4.143-6.734.705-12.34-.009-12.493-1.616-.171-1.58 5.155-3.439 11.889-4.143C1455.547 1375.219 1461.134 1375.932 1461.305 1377.531z"/><linearGradient id="e" x1="198.775" x2="200.365" y1="-1922.55" y2="-1922.55" gradientTransform="matrix(217.2118 0 0 -217.2118 -42124.453 -416089.625)" gradientUnits="userSpaceOnUse"><stop offset="0" stop-color="#af533e"/><stop offset="1" stop-color="#de765e"/></linearGradient><path fill="url(#e)" d="M1286.428,1387.54c0,0-4.152-7.744-40.857-3.899
		c-36.72,3.835-131.483,49.753-174.702,107.179c-43.236,57.453-2.965,89.424,25.166,113.723
		c28.126,24.273,130.873,48.545,172.331,25.463c41.459-23.107,94.75-77.988,103.046-105.328
		c8.285-27.324,16.942-63.456,16.942-63.456S1268.953,1456.593,1286.428,1387.54z"/><linearGradient id="f" x1="198.932" x2="200.521" y1="-1923.277" y2="-1923.277" gradientTransform="matrix(178.7776 0 0 -178.7776 -34310.242 -342241.969)" gradientUnits="userSpaceOnUse"><stop offset="0" stop-color="#af533e"/><stop offset="1" stop-color="#de765e"/></linearGradient><path fill="url(#f)" d="M1402.986,1503.882l-14.081-10.372c0,0-45.916,84.378-80.858,112.802
		c-34.941,28.425-53.77,34.481-53.77,34.481s48.741,63.807,143.384,59.069c94.632-4.731,133.554-60.576,133.554-60.576
		s-62.679-15.436-93.478-66.255C1406.939,1522.205,1402.986,1503.882,1402.986,1503.882z"/><linearGradient id="g" x1="199.374" x2="200.964" y1="-1922.541" y2="-1922.541" gradientTransform="matrix(218.611 0 0 -218.611 -42184.559 -418773.781)" gradientUnits="userSpaceOnUse"><stop offset="0" stop-color="#af533e"/><stop offset="1" stop-color="#de765e"/></linearGradient><path fill="url(#g)" d="M1428.558,1447.602l-27.738,9.776c0,0,0.785,83.656,45.348,127.543
		c44.582,43.895,122.155,67.283,186.106,46.26c63.961-21.024,107.188-75.298,107.188-96.14c0-20.816-43.227-75.896-77.87-94.552
		c-34.635-18.647-168.785-49.635-168.785-49.635l-14.515,18.837C1478.293,1409.691,1477.986,1435.191,1428.558,1447.602z"/><path fill="#9b3a69" d="M1121.792 1442.386c0 0-18.057 68.383 9.577 103.125 27.635 34.734 92.634 43.21 128.839 27.521 36.186-15.669 74.359-53.796 74.359-53.796s-10.859 56.126-64.006 93.711c-53.129 37.587-138.969 12.312-154.563 3.629-15.606-8.683-85.236-74.693-70.46-100.915C1060.3 1489.458 1121.792 1442.386 1121.792 1442.386zM1475.739 1426.327c0 0-24.57 77.067 53.589 132.471 78.177 55.412 195.936 6.563 195.936 6.563s-38.01 64.646-142.933 78.258c-104.914 13.629-153.484-91.312-153.484-91.312s-25.752-48.778-23.685-74.891c2.076-26.113 2.076-26.113 2.076-26.113L1475.739 1426.327z"/><path fill="#9b3a69" d="M1423.178,1558.798l11.689,15.011c0,0-62.579,13.547-78.611,60.538
		c-16.031,46.974,62.327,67.283,109.337,46.478c47.009-20.797-16.41,34.455-95.363,21.817
		c-78.981-12.638-123.581-52.679-116.468-63.644c7.104-10.968,83.683-46.352,107.387-86.691
		c23.676-40.348,31.601-85.687,31.601-85.687L1423.178,1558.798z"/><path fill="#fffafd" d="M1669.941 1489.99c-2.212 2.879-16.094-4.143-31.015-15.642-14.902-11.509-25.201-23.172-22.972-26.042 2.22-2.87 16.094 4.135 31.006 15.653C1661.862 1475.467 1672.153 1487.12 1669.941 1489.99zM1675.943 1499.224c1.002-1.291 7.212 1.85 13.883 7.005 6.679 5.163 11.291 10.379 10.29 11.661-.984 1.273-7.195-1.86-13.874-7.003C1679.572 1505.732 1674.96 1500.514 1675.943 1499.224z"/><linearGradient id="h" x1="199.354" x2="200.943" y1="-1921.629" y2="-1921.629" gradientTransform="scale(413.4313 -413.4313) rotate(.567 -193556.672 -20839.442)" gradientUnits="userSpaceOnUse"><stop offset="0" stop-color="#37d190"/><stop offset="1" stop-color="#71b4fe"/></linearGradient><path fill="url(#h)" d="M1388.65,1936.459c7.191,0.828,14.808,1.35,22.583,1.35c2.846,0,5.72-0.07,8.597-0.22
		C1408.823,1937.15,1398.108,1936.799,1388.65,1936.459 M1393.826,1755.842c5.192,1.913,6.431,3.138,9.987,3.138
		c0.84,0,1.809-0.068,2.991-0.212c1.93-0.235,3.84-0.931,5.835-1.834c-8.674-0.569-15.096-1-15.096-1L1393.826,1755.842
		 M1466.685,1755.258L1466.685,1755.258c-3.367,1.884-5.977,3.285-7.283,3.963l12.417,23.477
		C1470.152,1772.188,1468.398,1763.077,1466.685,1755.258 M1442.488,1814.156c-5.861,0-10.626-4.716-10.69-10.572
		c-0.054-5.905,4.684-10.732,10.588-10.797c0.032,0,0.064,0,0.096,0c5.859,0,10.637,4.709,10.691,10.58
		c0.064,5.902-4.676,10.734-10.569,10.788C1442.565,1814.156,1442.526,1814.156,1442.488,1814.156 M1393.052,1802.71
		c-4.164,0-7.542-3.356-7.595-7.529c-0.026-4.199,3.339-7.638,7.537-7.681c0.023,0,0.046,0,0.068,0c4.176,0,7.577,3.342,7.613,7.527
		c0.045,4.207-3.331,7.636-7.529,7.684C1393.115,1802.71,1393.083,1802.71,1393.052,1802.71 M1635.485,1675.742
		c-0.633,0-1.284,0.006-1.929,0.019c-10.616,0.189-21.14,1.867-31.368,4.568c2.129,1.734,3.737,4.027,4.686,6.787
		c0,0-63.547,42.687-66.355,75.814c-2.905,33.108,20.689,36.221,20.689,36.221s-57.733,12.484-64.89,45.377
		c-7.168,32.882,36.114,43.361,36.114,43.361s-15.47,34.066,15.436,65.659c23.962,24.408,94.894,27.011,125.722,27.011
		c2.815,0,5.291-0.022,7.371-0.05l0,0l0,0c-10.73,8.332-23.963,15.399-40.383,19.443c-7.487,1.87-15.259,2.717-23.165,2.717
		c-66.966,0-144.278-60.665-153.176-73.8c-2.575-3.833-3.77-5.29-4.875-5.29c-1.304,0-2.483,2.028-5.658,4.568
		c-1.066-4.529-1.652-7.292-1.652-7.292s32.053-40.158,23.08-114.113c-0.199-1.676-0.401-3.324-0.605-4.948l-4.332,9.588
		c0,0-5.398-32.54-21.59-32.541c-0.781,0-1.587,0.076-2.419,0.234c-18.063,3.457-32.586,53.67-32.586,53.67
		s-0.858-55.424-28.037-55.43c-3.426,0-7.266,0.879-11.579,2.862c0,0,12.777,53.734,4.08,93.96c2.822,1.76,4.712,4.883,4.747,8.46
		c0.064,5.552-4.396,10.103-9.965,10.165c-0.028,0-0.056,0-0.084,0c-0.059,0-0.118-0.001-0.177-0.002
		c-7.937,28.652,5.329,30.353,8.584,30.353c0.437,0,0.693-0.03,0.693-0.03s25.843-15.571,15.047-55.026
		c0,0,13.566,27.296,11.979,42.631c-0.941,9.176,14.733,11.017,27.452,11.017c8.515,0,15.703-0.824,15.703-0.824
		s0.205,7.97-9.272,12.922c5.271-1.77,8.64-3.858,10.933-5.658c3.175-2.54,4.354-4.568,5.658-4.568c1.105,0,2.3,1.456,4.875,5.29
		c8.898,13.135,86.209,73.8,153.176,73.8c7.906,0,15.677-0.847,23.165-2.717c16.42-4.043,29.653-11.11,40.383-19.443
		c35.871-27.908,43.67-70.973,43.67-70.973l-23.216-94.227l4.134-75.749C1705.55,1739.56,1699.322,1675.735,1635.485,1675.742
		 M1150.179,1671.052c-4.412,0-8.76,0.393-13.011,1.235l64.763,25.229c0,0-54.957,13.863-58.345,72.219
		c-3.236,56.704,25.843,98.378,27.521,100.761c-1.863-1.74-24.619-22.221-32.476-31.195c0,0-12.081,58.347,9.785,108.975
		c8.43,19.456,28.469,25.99,51.173,25.99c36.369,0,79.585-16.756,92.95-24.003c8.146-4.438,12.957-5.821,15.79-5.821
		c4.68-0.001,3.96,3.771,3.96,3.771s-0.08,0.081-0.189,0.279c-30.371,22.69-82.592,54.215-138.637,54.215
		c-8.298,0-16.68-0.691-25.087-2.204c-63.147-11.378-80.947-57.664-80.968-100.087c0.021,42.423,17.821,88.709,80.968,100.087
		c8.407,1.513,16.789,2.204,25.087,2.204c56.045,0,108.266-31.525,138.637-54.215c0.109-0.198,0.189-0.279,0.189-0.279
		c17.079-12.737,27.143-22.728,27.143-22.728s3.605,1.307,9.775,3.07c-7.626-7.789-20.064-20.979-20.064-20.979l6.576-31.205
		c-8.801,3.861-26.698,9.237-44.03,14.06c4.452,0.859,7.827,4.752,7.874,9.456c0.054,5.38-4.269,9.774-9.632,9.839
		c-0.033,0-0.067,0-0.099,0c-5.335,0-9.675-4.294-9.72-9.65c-0.035-2.914,1.224-5.549,3.244-7.354
		c-18.912,5.137-35.153,9.16-35.153,9.16s71.074-28.134,63.139-53.879c-7.932-25.717-111.074-60.612-111.074-60.612
		s67.045,2.509,100.317,8.629c2.708,0.498,5.196,0.727,7.484,0.727c25.833,0,26.039-29.168,26.039-29.168l5.165,31.339
		l-3.781-37.357c-7.882-0.04-20.933-4.797-44.088-17.876C1269.894,1731.499,1204.927,1671.052,1150.179,1671.052"/><linearGradient id="i" x1="199.353" x2="200.943" y1="-1921.646" y2="-1921.646" gradientTransform="scale(413.4313 -413.4313) rotate(.567 -193556.672 -20839.442)" gradientUnits="userSpaceOnUse"><stop offset="0" stop-color="#4191b1"/><stop offset="1" stop-color="#4f8acc"/></linearGradient><path fill="url(#i)" d="M1602.189,1680.329L1602.189,1680.329c-53.01,13.738-97.456,53.464-97.456,53.464
		s-24.825,14.026-38.047,21.465c1.713,7.819,3.467,16.93,5.133,27.44l6.115,11.561l-3.405,7.536
		c0.204,1.623,0.406,3.272,0.605,4.948c8.973,73.955-23.08,114.113-23.08,114.113s0.587,2.763,1.652,7.292
		c3.175-2.54,4.354-4.568,5.658-4.568c1.105,0,2.3,1.456,4.875,5.29c8.898,13.135,86.209,73.8,153.176,73.8
		c7.906,0,15.677-0.847,23.165-2.717c16.42-4.043,29.653-11.11,40.383-19.443c-2.08,0.029-4.556,0.05-7.371,0.05
		c-30.829,0-101.76-2.604-125.722-27.011c-30.906-31.593-15.436-65.659-15.436-65.659s-43.282-10.479-36.114-43.361
		c7.157-32.893,64.89-45.377,64.89-45.377s-23.594-3.113-20.689-36.221c2.808-33.127,66.355-75.814,66.355-75.814
		C1605.926,1684.356,1604.318,1682.063,1602.189,1680.329"/><linearGradient id="j" x1="199.354" x2="200.943" y1="-1921.625" y2="-1921.625" gradientTransform="scale(413.4313 -413.4313) rotate(.567 -193556.672 -20839.442)" gradientUnits="userSpaceOnUse"><stop offset="0" stop-color="#4191b1"/><stop offset="1" stop-color="#4f8acc"/></linearGradient><path fill="url(#j)" d="M1137.168,1672.287L1137.168,1672.287c-10.154,1.94-19.733,6.48-28.33,14.333
		c-24.839,22.43-30.68,46.565-30.673,70.091c0.006,20.918,4.634,41.354,4.639,59.681c0.003,8.813-1.063,17.139-4.227,24.796
		c-6.013,14.55-11.182,36.326-11.171,59.228c0.021,42.423,17.821,88.709,80.968,100.087c8.407,1.513,16.789,2.204,25.087,2.204
		c56.045,0,108.266-31.525,138.637-54.215c0.109-0.198,0.189-0.279,0.189-0.279s0.72-3.772-3.96-3.771
		c-2.833,0-7.645,1.383-15.79,5.821c-13.364,7.247-56.581,24.003-92.95,24.003c-22.704,0-42.743-6.534-51.173-25.99
		c-21.866-50.628-9.785-108.975-9.785-108.975c7.858,8.974,30.614,29.455,32.476,31.195c-1.678-2.383-30.757-44.057-27.521-100.761
		c3.388-58.356,58.345-72.219,58.345-72.219L1137.168,1672.287"/><path fill="#fffafd" d="M1656.239 1719.539c.054 7.023-5.56 12.773-12.591 12.836-7.014.071-12.764-5.561-12.827-12.574-.082-7.031 5.56-12.772 12.573-12.844C1650.426 1706.884 1656.167 1712.517 1656.239 1719.539zM1580.977 1757.036c.036 4.63-3.675 8.402-8.304 8.465-4.622.037-8.404-3.674-8.458-8.304-.037-4.622 3.665-8.403 8.305-8.458C1577.141 1748.695 1580.922 1752.404 1580.977 1757.036zM1664.047 1807.917c.054 5.425-4.296 9.866-9.722 9.911-5.425.054-9.865-4.287-9.92-9.721-.054-5.415 4.297-9.858 9.713-9.911C1659.552 1798.142 1663.993 1802.492 1664.047 1807.917zM1611.613 1875.462c.027 2.861-2.284 5.217-5.155 5.235-2.87.026-5.217-2.276-5.244-5.145-.036-2.87 2.274-5.217 5.145-5.254C1609.229 1870.279 1611.585 1872.581 1611.613 1875.462zM1683.815 1952.23c.063 6.491-5.154 11.789-11.626 11.862-6.5.064-11.798-5.136-11.861-11.625-.071-6.482 5.136-11.798 11.627-11.852C1678.434 1940.533 1683.751 1945.75 1683.815 1952.23zM1696.84 1887.548c.018 2.428-1.941 4.439-4.379 4.467-2.455.017-4.449-1.95-4.468-4.369-.036-2.463 1.932-4.458 4.379-4.476C1694.808 1883.142 1696.812 1885.101 1696.84 1887.548zM1536.838 1925.098c.063 6.49-5.154 11.806-11.644 11.877-6.499.073-11.816-5.144-11.869-11.652-.072-6.482 5.145-11.806 11.635-11.869C1531.458 1913.39 1536.775 1918.599 1536.838 1925.098zM1518.884 1838.109c.036 4.334-3.43 7.871-7.762 7.918-4.333.036-7.862-3.421-7.917-7.764-.044-4.323 3.43-7.871 7.763-7.906C1515.293 1830.311 1518.839 1833.787 1518.884 1838.109zM1511.736 1765.809c.045 4.469-3.538 8.124-8.007 8.178-4.468.036-8.133-3.539-8.177-8.015-.036-4.469 3.547-8.124 8.006-8.161C1508.035 1757.758 1511.691 1761.349 1511.736 1765.809zM1453.173 1803.367c.064 5.902-4.676 10.734-10.569 10.788-5.913.062-10.741-4.677-10.805-10.571-.054-5.905 4.684-10.732 10.588-10.797C1448.289 1792.736 1453.119 1797.465 1453.173 1803.367M1451.539 1871.4c.036 3.339-2.653 6.083-6.002 6.119-3.349.037-6.093-2.653-6.129-6.012-.036-3.339 2.663-6.083 6.011-6.12C1448.759 1865.36 1451.513 1868.041 1451.539 1871.4zM1382.812 1882.599c.064 5.552-4.396 10.103-9.965 10.165-5.558.045-10.101-4.413-10.163-9.965-.054-5.561 4.405-10.109 9.963-10.174C1378.208 1872.563 1382.758 1877.032 1382.812 1882.599M1400.676 1795.026c.045 4.207-3.331 7.636-7.529 7.684-4.207.052-7.636-3.324-7.69-7.529-.026-4.199 3.339-7.638 7.537-7.681C1397.201 1787.463 1400.639 1790.819 1400.676 1795.026M1143.262 1733.982c.089 8.051-6.369 14.623-14.425 14.703-8.033.081-14.605-6.371-14.694-14.415-.077-8.042 6.381-14.623 14.406-14.704C1136.604 1719.494 1143.189 1725.929 1143.262 1733.982zM1220.572 1747.801c.04 4.233-3.358 7.7-7.587 7.745-4.229.036-7.699-3.359-7.73-7.592-.051-4.233 3.349-7.7 7.586-7.736C1217.07 1740.166 1220.532 1743.577 1220.572 1747.801zM1298.226 1765.359c.054 5.884-4.667 10.713-10.57 10.767-5.876.054-10.705-4.667-10.759-10.561-.064-5.886 4.675-10.714 10.551-10.769C1293.343 1754.742 1298.162 1759.471 1298.226 1765.359zM1172.43 1816.23c.037 3.53-2.802 6.418-6.336 6.463-3.53.026-6.427-2.798-6.472-6.345-.031-3.53 2.816-6.427 6.351-6.455C1169.505 1809.848 1172.389 1812.692 1172.43 1816.23zM1260.035 1861.128c.064 6.968-5.533 12.673-12.51 12.735-6.954.082-12.65-5.515-12.726-12.475-.072-6.977 5.523-12.681 12.492-12.745C1254.25 1848.582 1259.972 1854.177 1260.035 1861.128zM1145.12 1920.845c.068 6.337-5.027 11.518-11.369 11.59-6.332.054-11.531-5.018-11.599-11.363-.059-6.337 5.041-11.526 11.368-11.59C1139.863 1909.418 1145.067 1914.5 1145.12 1920.845zM1234.342 1950.831c.027 3.241-2.576 5.895-5.822 5.931-3.24.026-5.89-2.574-5.935-5.822-.023-3.232 2.572-5.884 5.827-5.931C1231.651 1944.981 1234.302 1947.592 1234.342 1950.831zM1299.562 1899.887c.054 5.38-4.269 9.774-9.632 9.839-5.38.053-9.774-4.261-9.819-9.65-.064-5.361 4.25-9.776 9.622-9.821C1295.113 1890.201 1299.509 1894.515 1299.562 1899.887"/><linearGradient id="k" x1="199.353" x2="200.943" y1="-1921.621" y2="-1921.621" gradientTransform="scale(413.4313 -413.4313) rotate(.567 -193556.672 -20839.442)" gradientUnits="userSpaceOnUse"><stop offset="0" stop-color="#4191b1"/><stop offset="1" stop-color="#4f8acc"/></linearGradient><path fill="url(#k)" d="M1334.105,1767.578c0,0-0.206,29.168-26.039,29.168c-2.288,0-4.776-0.229-7.484-0.727
		c-33.271-6.119-100.317-8.629-100.317-8.629s103.142,34.895,111.074,60.612c7.935,25.745-63.139,53.879-63.139,53.879
		s16.241-4.023,35.153-9.16c1.695-1.515,3.926-2.446,6.378-2.467c0.033,0,0.067,0,0.099,0c0.635,0,1.255,0.061,1.856,0.177
		c17.332-4.823,35.229-10.199,44.03-14.06l7.695-36.519l-4.143-40.937L1334.105,1767.578"/><path fill="#719bcc" d="M1289.832,1890.254c-0.033,0-0.067,0-0.099,0c-2.452,0.021-4.682,0.952-6.378,2.467
		c2.735-0.743,5.527-1.509,8.333-2.29C1291.087,1890.315,1290.466,1890.254,1289.832,1890.254"/><linearGradient id="l" x1="199.557" x2="201.147" y1="-1920.841" y2="-1920.841" gradientTransform="matrix(916.0977 0 0 -916.0977 -182137.875 -1757834.5)" gradientUnits="userSpaceOnUse"><stop offset="0" stop-color="#6980a8"/><stop offset="1" stop-color="#6b90b2"/></linearGradient><path fill="url(#l)" d="M1442.772,1933.806c-4.854,1.63-11.32,2.99-20.045,3.605
		c-0.967,0.069-1.931,0.128-2.896,0.179c0.014,0,0.029,0.001,0.043,0.002c1.132,0.045,2.22,0.066,3.274,0.066
		C1432.26,1937.657,1438.5,1936.038,1442.772,1933.806 M1349.206,1928.555c2.823,2.883,4.987,5.027,5.616,5.488
		c1.543,1.134,15.26,1.75,33.828,2.416C1372.265,1934.572,1358.084,1931.092,1349.206,1928.555 M1380.751,1753.1
		c-16.311,0-45.265,8.431-45.265,8.431l0.003,0.027c0.033,0,0.065,0,0.098,0c1.381,0,2.602-0.146,3.692-0.418
		c7.183-1.74,26.185-6.001,26.185-6.001l28.361,0.703c-1.667-0.614-3.74-1.299-6.428-2.037
		C1385.611,1753.313,1383.341,1753.1,1380.751,1753.1 M1434.459,1750.058c-9.671,0-16.1,4.288-21.821,6.876
		c16.922,1.111,42.418,2.75,45.55,2.75c0.175,0,0.281-0.005,0.311-0.016c0.076-0.027,0.389-0.182,0.903-0.448l-0.516-0.976
		c0,0-8.539-7.419-22.7-8.141C1435.598,1750.073,1435.024,1750.058,1434.459,1750.058"/><linearGradient id="m" x1="199.353" x2="200.943" y1="-1921.652" y2="-1921.652" gradientTransform="scale(413.4313 -413.4313) rotate(.567 -193556.672 -20839.442)" gradientUnits="userSpaceOnUse"><stop offset="0" stop-color="#4191b1"/><stop offset="1" stop-color="#4f8acc"/></linearGradient><path fill="url(#m)" d="M1365.464,1755.14c0,0-19.002,4.261-26.185,6.001c-1.089,0.272-2.31,0.418-3.692,0.418
		c-0.033,0-0.065,0-0.098,0l3.781,37.357l5.46,33.128c0,0-0.406,34.21-3.52,40.899c-0.416,0.893-2.388,2.066-5.493,3.428
		l-6.576,31.205c0,0,12.438,13.189,20.064,20.979c8.878,2.537,23.058,6.017,39.444,7.904c9.458,0.339,20.173,0.691,31.18,1.13
		c0.965-0.05,1.93-0.11,2.896-0.179c8.725-0.615,15.191-1.974,20.045-3.605c9.478-4.952,9.272-12.922,9.272-12.922
		s-7.188,0.824-15.703,0.824c-12.719,0-28.393-1.841-27.452-11.017c1.588-15.335-11.979-42.631-11.979-42.631
		c10.797,39.455-15.047,55.026-15.047,55.026s-0.256,0.03-0.693,0.03c-3.255,0-16.521-1.701-8.584-30.353
		c-5.439-0.093-9.841-4.499-9.903-9.964c-0.054-5.561,4.405-10.109,9.963-10.174c0.038,0,0.077,0,0.115,0
		c1.945,0,3.763,0.554,5.304,1.515c8.697-40.227-4.08-93.96-4.08-93.96c4.313-1.982,8.153-2.862,11.579-2.862
		c27.179,0.005,28.037,55.43,28.037,55.43s14.522-50.213,32.586-53.67c0.832-0.159,1.638-0.234,2.419-0.234
		c16.192,0.001,21.59,32.541,21.59,32.541l4.332-9.588c-0.86-6.821-1.771-13.181-2.71-19.097l-12.417-23.477
		c-0.514,0.266-0.826,0.421-0.903,0.448c-0.03,0.011-0.135,0.016-0.311,0.016c-3.132,0-28.629-1.639-45.55-2.75
		c-1.995,0.903-3.905,1.599-5.835,1.834c-1.182,0.144-2.151,0.212-2.991,0.212c-3.556,0-4.795-1.225-9.987-3.138L1365.464,1755.14"/><linearGradient id="n" x1="199.353" x2="200.943" y1="-1921.523" y2="-1921.523" gradientTransform="scale(413.4313 -413.4313) rotate(.567 -193556.672 -20839.442)" gradientUnits="userSpaceOnUse"><stop offset="0" stop-color="#4382b9"/><stop offset="1" stop-color="#4780c0"/></linearGradient><path fill="url(#n)" d="M1471.818,1782.698c0.938,5.916,1.849,12.276,2.71,19.097l3.405-7.536L1471.818,1782.698"/><path fill="#719bcc" d="M1372.762,1872.625c-0.038,0-0.077,0-0.115,0c-5.558,0.065-10.017,4.613-9.963,10.174
		c0.061,5.465,4.463,9.87,9.903,9.964c0.662-2.389,1.47-4.963,2.445-7.742c1.218-3.473,2.22-7.117,3.034-10.881
		C1376.525,1873.179,1374.707,1872.625,1372.762,1872.625"/><linearGradient id="o" x1="199.353" x2="200.943" y1="-1921.63" y2="-1921.63" gradientTransform="scale(413.4313 -413.4313) rotate(.567 -193556.672 -20839.442)" gradientUnits="userSpaceOnUse"><stop offset="0" stop-color="#4382b9"/><stop offset="1" stop-color="#4780c0"/></linearGradient><path fill="url(#o)" d="M1339.27,1798.916l4.143,40.937l-7.695,36.519c3.105-1.362,5.077-2.535,5.493-3.428
		c3.113-6.689,3.52-40.899,3.52-40.899L1339.27,1798.916"/><linearGradient id="p" x1="199.517" x2="201.106" y1="-1920.226" y2="-1920.226" gradientTransform="matrix(803.8393 0 0 -803.8393 -159657.484 -1543045.875)" gradientUnits="userSpaceOnUse"><stop offset="0" stop-color="#37d190"/><stop offset="1" stop-color="#71b4fe"/></linearGradient><path fill="url(#p)" d="M721.996,842.591c0,0,7.699,50.828,26.186,66.236
		c18.486,15.407,279.538,13.15,279.538,13.15l76.318-6.985c0,0,190.912-46.505,284.326-79.108
		c93.414-32.603,517.843-94.073,517.843-94.073l69.178-9.956l11.365-25.941c0,0,28.767-49.871,0-105.185
		c-28.768-55.314-59.701-68.167-59.701-68.167h-27.728l-162.52,59.691l-24.841-232.43l-10.976-143.844
		c0,0-237.429-156.553-462.151-116.115c-224.72,40.438-377.23,193.525-377.23,193.525l-36.394,43.327l87.808,283.067l24.841,58.345
		v11.554l-14.442,13.286c0,0-135.757-12.601-150.777,2.944C757.618,721.457,719.879,803.128,721.996,842.591z"/><linearGradient id="q" x1="199.386" x2="200.975" y1="-1920.4" y2="-1920.4" gradientTransform="matrix(522.27 0 0 -522.27 -103228.133 -1002388.125)" gradientUnits="userSpaceOnUse"><stop offset="0" stop-color="#ff8500"/><stop offset="1" stop-color="#e9e41d"/></linearGradient><path fill="url(#q)" d="M904.997,603.321c0,0,132.8-70.19,344.234-116.983s417.668-16.754,417.668-16.754
		l49.681,6.934l18.513,99.75l-6.816,16.942c0,0-182.115,47.37-414.347,79.144c-232.23,31.773-369.72,24.841-369.72,24.841
		L904.997,603.321z"/><linearGradient id="r" x1="199.557" x2="201.146" y1="-1920.468" y2="-1920.468" gradientTransform="matrix(909.1911 0 0 -909.1911 -180752.61 -1744907.5)" gradientUnits="userSpaceOnUse"><stop offset="0" stop-color="#ff8500"/><stop offset="1" stop-color="#e9e41d"/></linearGradient><path fill="url(#r)" d="M758.954,916.266h-76.241c0,0-2.338,95.985,18.486,101.166c20.824,5.181,49.293,0,49.293,0
		l13.73,17.313c0,0,22.47,238.883,88.715,323.758c66.245,84.875,40.055,30.951,127.863,57.146
		c87.809,26.196,167.146-3.845,167.146-3.845l112.117-37.739c0,0,58.112-60.847,67.355-110.148
		c9.243-49.303,16.943-92.603,16.943-92.603s36.394-12.149,58.635-5.217c22.241,6.932,36.106,15.399,36.106,15.399
		s27.611,126.325,46.54,160.986c18.928,34.661,44.347,50.377,44.347,50.377l117.849,22.79c0,0,209.123,6.544,254.76-12.52
		c45.637-19.064,45.637-19.064,45.637-19.064s17.7-52.958,47.75-125.069c30.049-72.111,49.618-233.864,49.618-233.864
		s-5.055-19.253,0-13.865c5.055,5.389,48.986,11.564,51.296,11.564c2.311,0,23.108-33.668,23.108-33.668l7.699-84.957
		l-245.707,4.622c0,0-416.702,25.427-465.995,31.583c-49.293,6.156-306.563-18.315-306.563-18.315L758.954,916.266z"/><linearGradient id="s" x1="198.811" x2="200.4" y1="-1921.494" y2="-1921.494" gradientTransform="matrix(286.3691 0 0 -286.3691 -56082.074 -549086)" gradientUnits="userSpaceOnUse"><stop offset="0" stop-color="#e961ff"/><stop offset="1" stop-color="#ff7b4d"/></linearGradient><path fill="url(#s)" d="M917.638,1000.481h-62.39c0,0-15.02,121.314,13.286,221.832
		c28.307,100.519,57.191,107.451,57.191,107.451s150.777,19.641,207.968,8.666c57.191-10.977,69.322-15.02,69.322-15.02
		s52.57-85.624,67.012-152.285c14.443-66.66,36.395-150.425,36.395-150.425S1031.443,992.393,917.638,1000.481z"/><linearGradient id="t" x1="199.659" x2="201.249" y1="-1921.502" y2="-1921.502" gradientTransform="matrix(284.0635 0 0 -284.0635 -55207.879 -544660.438)" gradientUnits="userSpaceOnUse"><stop offset="0" stop-color="#e961ff"/><stop offset="1" stop-color="#ff7b4d"/></linearGradient><path fill="url(#t)" d="M1539.23,1014.345l-31.186,12.711c0,0,6.535,115.149,51.983,216.821
		c45.448,101.673,53.138,87.041,107.061,93.973c53.924,6.933,214.133-5.388,214.133-5.388s56.225-82.385,71.633-162.124
		c15.408-79.739-0.768-171.997,0-171.311C1953.621,999.714,1635.514,986.617,1539.23,1014.345z"/><linearGradient id="u" x1="198.452" x2="200.042" y1="-1921.827" y2="-1921.827" gradientTransform="matrix(313.7251 0 0 -313.7251 -61799.191 -601362.75)" gradientUnits="userSpaceOnUse"><stop offset="0" stop-color="#37d190"/><stop offset="1" stop-color="#71b4fe"/></linearGradient><path fill="url(#u)" d="M905.773,1989.798l-300.352-434.222l-141.846-238.82c0,0-23.27-133.392,54.303-167.998
		c77.572-34.607,150.966,6.932,175.617,33.505c24.651,26.574,44.292,78.567,44.676,99.363c0.383,20.797-5.394,45.836-8.088,53.535
		c-2.694,7.7-12.709,26.186-12.709,26.186s-28.879-107.451-98.59-110.917c-69.711-3.466-35.817,78.565-35.817,78.565l93.563,149.432
		l190.271,303.881l92.137,142.554C958.938,1924.862,910.854,1944.666,905.773,1989.798z"/><linearGradient id="v" x1="198.441" x2="200.03" y1="-1924.952" y2="-1924.952" gradientTransform="matrix(173.4798 0 0 -173.4798 -33385.18 -331607.656)" gradientUnits="userSpaceOnUse"><stop offset="0" stop-color="#37d190"/><stop offset="1" stop-color="#71b4fe"/></linearGradient><polygon fill="url(#v)" points="1074.769 2169.722 1039.936 2195.14 1246.92 2525.577 1315.665 2469.56 1101.663 2139.681"/><linearGradient id="w" x1="197.847" x2="199.436" y1="-1922.859" y2="-1922.859" gradientTransform="matrix(148.9771 0 0 -148.9771 -28570.023 -285295.875)" gradientUnits="userSpaceOnUse"><stop offset="0" stop-color="#fbd8ec"/><stop offset="1" stop-color="#fff"/></linearGradient><polygon fill="url(#w)" points="904.997 990.393 1043.493 1341.761 1141.781 1339.965 1005.446 990.393"/><linearGradient id="x" x1="197.382" x2="198.972" y1="-1924.178" y2="-1924.178" gradientTransform="matrix(101.6474 0 0 -101.6474 -19011.23 -194426.281)" gradientUnits="userSpaceOnUse"><stop offset="0" stop-color="#fbd8ec"/><stop offset="1" stop-color="#fff"/></linearGradient><polygon fill="url(#x)" points="1051.879 996.527 1179.179 1326.297 1210.333 1316.756 1213.438 1308.581 1092.484 999.028"/><linearGradient id="y" x1="199.637" x2="201.226" y1="-1923.11" y2="-1923.11" gradientTransform="matrix(137.6313 0 0 -137.6313 -25841.514 -263508.906)" gradientUnits="userSpaceOnUse"><stop offset="0" stop-color="#fbd8ec"/><stop offset="1" stop-color="#fff"/></linearGradient><polygon fill="url(#y)" points="1634.741 1005.873 1761.832 1341.761 1853.492 1333.029 1719.299 1000.76"/><linearGradient id="z" x1="199.955" x2="201.545" y1="-1924.536" y2="-1924.536" gradientTransform="matrix(93.6239 0 0 -93.6239 -16962.229 -179021.203)" gradientUnits="userSpaceOnUse"><stop offset="0" stop-color="#fbd8ec"/><stop offset="1" stop-color="#fff"/></linearGradient><polygon fill="url(#z)" points="1757.981 1000.76 1881.991 1326.297 1906.787 1289.691 1792.642 996.527"/><path fill="#d36e97" d="M2029.657 805.222c0 0-159.22 6.547-155.369 62.777 3.851 56.228-5.372 36.207-5.372 36.207s-25.438-80.883-177.177-61.625c-151.74 19.255-243.4 86.927-243.4 86.927h-124.78l-232.965-7.725c0 0 137.412-52.97 353.488-99.207 216.076-46.237 528.027-89.371 528.027-89.371L2029.657 805.222zM1401.217 1012.324c0 0-29.229 60.658-28.073 60.658 1.156 0 56.903 0 56.903 0L1401.217 1012.324zM1447.956 1206.137c0 0-50.711-22.337-74.845 16.945-24.134 39.283-15.564 103.215-15.564 103.215l-86.95 40.823c0 0 47.776-53.599 59.131-115.573 11.356-61.973 6.012-73.139 6.012-73.139s31.922-16.277 60.324-16.996c28.4-.72 43.96 24.238 43.96 24.238L1447.956 1206.137zM1335.698 1692.782c0 0-39.283 2.496-86.144-8.318-46.954-10.815-103.151-12.202-107.773-12.202s-63.962 4.529-62.022 65.164c1.942 60.633-1.201 103.798-1.201 103.798s-34.662 48.618-11.183 95.758c23.569 47.139 3.512 35.585 3.512 35.585s-31.149 2.311-40.577 8.874c-9.428 6.469-4.991-17.563-13.033-30.594-7.95-12.94-51.576-18.395-51.576-18.395l-88.642-134.3-29.207-53.332v-.093l36.601-44.643 90.212-45.476-3.881-38.636-11.832-16.36c0 0-67.935-71.54-73.666-151.584-3.143-43.35-3.513-45.292-11.832-54.072l2.404-7.488c0 0 67.197 36.881 141.142 39.931 73.944 3.143 105.554-.093 105.554-.093l-29.762 26.343c0 0-99.64 98.53-10.352 153.248 89.38 54.719 157.962 38.914 157.962 38.914l23.569-5.824 42.427 32.074L1335.698 1692.782z"/><path fill="#d36e97" d="M993.719 1945.009c0 0-42.495 6.819-66.068 63.275-32.351 77.48-24.124 153.059 46.092 201.922 0 0-25.21 18.112-98.811-9.646-73.602-27.759-125.208-81.452-148.316-181.696-23.108-100.244 50.836-188.679 50.836-188.679l90.119 117.686 32.351 41.928C899.922 1989.798 927.303 1904.388 993.719 1945.009zM1085.745 1999.601c0 0-39.283-3.187-95.318 92.131 0 0 12.135-55.457 26.865-80.876 14.728-25.418.849-26.287 30.326-38.704C1077.094 1959.734 1085.745 1999.601 1085.745 1999.601zM1069.377 2067.278c0 0-24.647 50.066-62.39 63.93 0 0 51.478-1.54 68.103-16.175 16.624-14.635 35.477-55.458 35.477-55.458l-17.74-15.405L1069.377 2067.278z"/><path fill="#d36e97" d="M1148.375 2000.503c0 0-24.06 132.336 11.246 215.479 35.308 83.141-60.821-73.103-60.821-73.103s19.296-26.306 16.408-51.146c-2.889-24.841-22.38-47.563-22.38-47.563l-1.052-69.13L1148.375 2000.503zM1208.333 2456.832l37.432 77.988-211.99 124.411c0 0-43.655-67.675-51.589-98.933-7.935-31.256-46.64-191.275-59.349-239.801-12.709-48.527-4.737-104.562-4.737-104.562s76.949 3.466 91.391-2.888c14.442-6.355 25.996-16.175 25.996-16.175l114.959 177.927L1208.333 2456.832zM1709.995 1482.703c0 0 104.599-3.086 157.746-26.599 53.148-23.512 60.081-53.836 60.081-53.836h-52.377c0 0-201.671 25.823-205.205 25.378C1666.706 1427.199 1667.787 1443.464 1709.995 1482.703z"/><path fill="#d36e97" d="M1128.702 2037.238c0 0 95.476 41.594 151.714 6.932 56.238-34.661 68.562-65.471 68.562-65.471s61.623 16.175 98.978 0c0 0 117.807 107.694 231.247 15.335 0 0-96.069 16.245-137.278-3.396-41.208-19.641-94.355-65.423-94.355-65.423s5.777 22.512-72.019 16.816c-77.795-5.695-17.331-39.238-70.092 5.839-52.762 45.079-104.754 45.464-128.632 46.619-23.878 1.156-38.317 1.577-38.317 1.577L1128.702 2037.238zM1494.17 1663.955c0 0 49.681 25.168 108.606 7.096 58.924-18.072 121.856-82.196 121.856-82.196s-58.6 48.236-117.235 54.303c-58.636 6.064-76.183-8.088-76.183-8.088L1494.17 1663.955zM1849.983 1592.033c0 0-69.857 70.098-198.682 66.244 0 0 76.791 40.392 181.373-19.281L1849.983 1592.033zM1832.696 1658.277c0 0-60.657 62.58-112.65 66.625 0 0 73.366 7.837 112.65-53.85V1658.277z"/><linearGradient id="A" x1="196.242" x2="197.831" y1="-1923.581" y2="-1923.581" gradientTransform="matrix(97.0445 0 0 -97.0445 -18258.021 -185719.5)" gradientUnits="userSpaceOnUse"><stop offset="0" stop-color="#fbd8ec"/><stop offset="1" stop-color="#fff"/></linearGradient><polygon fill="url(#A)" points="785.925 910.362 842.852 996.527 922.26 996.527 940.168 996.527 892.22 916.716"/><linearGradient id="B" x1="194.268" x2="195.858" y1="-1926.487" y2="-1926.487" gradientTransform="matrix(53.8099 0 0 -53.8099 -9515.589 -102706.172)" gradientUnits="userSpaceOnUse"><stop offset="0" stop-color="#fbd8ec"/><stop offset="1" stop-color="#fff"/></linearGradient><polygon fill="url(#B)" points="937.863 919.241 977.14 996.527 1023.388 996.527 986.979 920.058"/><linearGradient id="C" x1="198.981" x2="200.57" y1="-1924.361" y2="-1924.361" gradientTransform="matrix(80.8939 0 0 -80.8939 -14549.003 -154700.203)" gradientUnits="userSpaceOnUse"><stop offset="0" stop-color="#fbd8ec"/><stop offset="1" stop-color="#fff"/></linearGradient><polygon fill="url(#C)" points="1547.702 935.779 1583.904 1012.324 1676.275 1003.362 1634.741 925.357"/><linearGradient id="D" x1="199.369" x2="200.958" y1="-1926.949" y2="-1926.949" gradientTransform="matrix(50.4003 0 0 -50.4003 -8364.368 -96157.227)" gradientUnits="userSpaceOnUse"><stop offset="0" stop-color="#fbd8ec"/><stop offset="1" stop-color="#fff"/></linearGradient><polygon fill="url(#D)" points="1684.036 929.507 1714.787 1001.033 1764.143 996.527 1727.941 922.094"/><path fill="#d36e97" d="M1927.822,766.83l26.905,47.828c0,0-46.931,25.226-7.649,103.792l-57.769-4.622l-5.777-13.963
		l-36.78-63.98L1927.822,766.83z"/><path fill="#319b91" d="M1238.832 99.866c0 0-54.688 118.039-6.932 395.331 0 0-143.267 26.711-240.319 63.16-97.051 36.449-74.253 37.204-97.621 0-23.367-37.203-69.524-237.237-69.524-237.237S1000.825 148.97 1238.832 99.866zM1291.979 681.598c0 0-158.286 25.648-207.967 64.816-49.681 39.167-15.02 93.469 90.119 71.517 105.139-21.952 399.759-88.854 604.261-112.016 204.501-23.163 214.65-14.777 214.65-14.777l-17.659 40.718c0 0-461.034 65.052-695.267 130.444-234.232 65.392-252.397 59.677-252.397 59.677l-284.543-11.616c0 0-27.066-68.984-4.688-138.927 22.38-69.945 47.436-73.6 47.436-73.6S1042.419 705.859 1291.979 681.598z"/><path fill="#fc6f06" d="M1230.275,485.58c0,0,16.645,89.722,43.219,150.957c0,0,361.037-33.671,461.6-60.268l1.706,15.986
		c0,0-282.181,63.924-496.946,89.343c-214.765,25.418-295.641,15.598-295.641,15.598L915.327,590.71
		C915.327,590.71,1035.702,532.191,1230.275,485.58z"/><path fill="#32b6e2" d="M917.881,245.74c0,0,41.928,182.252,95.654,301.255l-98.207,47.372l-90.89-264.581L917.881,245.74z"/><path fill="#edd117" d="M1022.006,550.27l40.438,115.537c0,0-94.964,24.335-117.849,18.486
		c-22.883-5.85-25.61-93.584-25.61-93.584L1022.006,550.27z"/><path fill="#32b6e2" d="M983.109,699.061l3.851,10.266c0,0-123.241,7.317-135.178,69.707
		c-11.939,62.39,17.715,73.944,17.715,73.944H729.628c0,0-1.086-147.889,47.824-149.428
		C826.363,702.009,983.109,699.061,983.109,699.061z"/><path fill="#e5b884" d="M955.034 1423.349c0 0-7.52 170.755 88.459 225.948 0 0-43.823-5.849-35.158 27.079 8.666 32.929 22.478 45.191 22.478 45.191s-44.142-49.003-79.958-26.011-70.766 97.647-70.766 97.647l-33.549-43.254c0 0 47.124-69.133 80.919-82.474 33.794-13.341 43.615-19.406 43.615-19.406l-4.044-25.707-27.729-40.149c0 0-40.149-69.901-54.591-110.339-14.443-40.438.577-71.633.577-71.633L955.034 1423.349zM734.099 1913.452h77.244c0 0-16.277 121.474 24.212 206.201 40.489 84.729 98.257 98.971 98.257 98.971s-122.687-29.193-164.172-97.587C728.156 2052.643 713.226 1968.021 734.099 1913.452zM918.142 2240.354l10.081-14.569c0 0 60.402 264.361 163.554 392.221l-65.386 35.041c0 0-61.499-131.81-77.943-214.141C932.005 2356.574 918.142 2240.354 918.142 2240.354z"/><path fill="#fc6f06" d="M1335.739,1178.408l24.983-98.894h36.975c0,0-15.463,19.81-14.663,81.882L1335.739,1178.408z"/><path fill="#e5b884" d="M977.31,1937.146c0,0-55.628,40.205-74.693,104.907
		C902.618,2042.053,888.518,1935.935,977.31,1937.146z"/><path fill="#683e57" d="M1499.271,1394.699c0,0-0.199,2.103-0.577,6.047c-0.407,2.311-1.256,5.94-2.384,9.524
		c-1.426,3.204-2.843,7.076-5.361,10.696c-4.667,7.5-11.915,15.154-21.302,21.645c-9.397,6.499-20.788,12.077-33.678,16.139
		c-12.89,4.098-27.278,6.634-42.524,7.509c-3.918,0.118-7.465,0.38-11.825,0.362c-3.781-0.135-7.356-0.054-11.436-0.362
		c-8.304-0.587-16.446-1.507-24.659-3.286c-16.438-3.374-33.271-9.243-48.59-19.667c-14.757-10.507-30.057-26.113-30.175-50.341
		l0.487-6.31c0.496-2.744,1.219-5.731,1.977-8.547c0.903-2.555,1.968-4.874,2.996-7.294c1.139-2.32,2.555-4.431,3.855-6.625
		c5.65-8.405,12.844-14.994,20.399-20.454c15.3-10.722,32.18-16.897,48.715-20.553c16.447-3.755,33.235-4.675,48.084-3.745
		c15.905,0.939,30.113,3.7,43.191,7.935c13.016,4.197,24.462,10.045,33.822,16.807c9.36,6.752,16.527,14.632,21.104,22.286
		c2.464,3.683,3.828,7.618,5.19,10.868c0.993,3.44,1.733,6.435,2.158,8.872c0.371,4.983,0.57,7.646,0.57,7.646L1499.271,1394.699z
		 M1479.006,1393.85c0,0-0.154-1.552-0.453-4.459c-0.315-1.434-0.829-3.177-1.407-5.243c-1.003-1.977-1.734-4.369-3.502-6.789
		c-3.114-4.938-8.286-10.569-15.751-15.695c-7.419-5.173-17.042-9.732-28.162-13.26c-11.058-3.494-24.046-5.805-37.135-6.454
		c-14.126-0.633-28.171,0.289-42.703,3.177c-14.37,2.906-28.848,8.122-40.97,16.391c-5.957,4.161-11.319,9.037-15.164,14.568
		c-0.822,1.427-1.833,2.789-2.573,4.234l-1.895,4.36c-0.261,1.282-0.669,2.373-1.093,3.736l-0.578,6.31
		c0.072-1.706,0.028-0.388,0.046-0.731l0.019,0.144l0.026,0.279l0.054,0.579l0.1,1.155l0.135,2.311l1.101,4.568l1.823,4.467
		c0.714,1.481,1.706,2.87,2.51,4.332c3.772,5.651,9.089,10.679,15.029,14.994c12.096,8.565,26.629,14.09,41.106,17.275
		c7.239,1.698,14.596,2.619,21.473,3.25c3.512,0.352,7.493,0.352,11.148,0.542c3.096,0.054,6.896-0.127,10.236-0.163
		c13.747-0.695,26.564-3.241,37.802-6.87c11.239-3.655,20.914-8.484,28.306-13.926c7.438-5.389,12.538-11.237,15.553-16.328
		c1.716-2.491,2.392-4.948,3.34-6.96c0.434-1.923,0.84-3.042,1.173-4.594c0.29-3.946,0.443-6.057,0.443-6.057L1479.006,1393.85z"/><path fill="#683e57" d="M1342.049 1458.669c-10.19 0-22.891-4.551-34.823-12.484-9.632-6.392-17.547-14.227-22.313-22.07-5.398-8.881-6.246-16.988-2.365-22.818 2.148-3.241 6.698-7.095 16.104-7.095 10.199 0 22.9 4.55 34.832 12.484 21.547 14.325 32.153 33.613 24.67 44.879C1356.004 1454.804 1351.463 1458.669 1342.049 1458.669zM1298.651 1403.445c-2.401 0-6.689.379-8.414 2.979-1.724 2.591-.757 7.41 2.573 12.898 4.071 6.698 11.013 13.504 19.524 19.172 10.309 6.842 21.42 10.932 29.715 10.932 2.402 0 6.689-.38 8.404-2.971 3.783-5.695-4.856-20.625-22.079-32.08C1318.066 1407.534 1306.955 1403.445 1298.651 1403.445zM1423.738 1458.669L1423.738 1458.669c-9.405 0-13.955-3.865-16.103-7.096-7.492-11.273 3.123-30.571 24.678-44.887 11.933-7.934 24.633-12.484 34.824-12.484 9.406 0 13.955 3.854 16.104 7.095 3.881 5.83 3.032 13.937-2.365 22.818-4.766 7.843-12.682 15.678-22.313 22.07C1446.628 1454.118 1433.938 1458.669 1423.738 1458.669zM1467.136 1403.445c-8.295 0-19.406 4.088-29.714 10.93-17.232 11.455-25.88 26.385-22.097 32.08 1.724 2.59 6.011 2.971 8.413 2.971 8.304.009 19.406-4.09 29.714-10.932 8.512-5.668 15.454-12.475 19.524-19.172 3.331-5.488 4.297-10.308 2.573-12.898C1473.825 1403.824 1469.538 1403.445 1467.136 1403.445zM1517.432 1496.065c0 7.807-6.336 14.135-14.135 14.135-7.807 0-14.135-6.328-14.135-14.135 0-7.807 6.328-14.135 14.135-14.135C1511.096 1481.93 1517.432 1488.258 1517.432 1496.065z"/><ellipse cx="1587.188" cy="1454.733" fill="#683e57" rx="14.135" ry="14.135" transform="rotate(-67.5 1587.161 1454.698)"/><path fill="#683e57" d="M1605.935 1524.336c0 5.813-4.721 10.525-10.535 10.525-5.813 0-10.524-4.712-10.524-10.525 0-5.813 4.712-10.525 10.524-10.525C1601.214 1513.811 1605.935 1518.523 1605.935 1524.336zM1193.312 1462.197c0 7.809-6.327 14.135-14.131 14.135-7.807 0-14.135-6.327-14.135-14.135 0-7.807 6.328-14.135 14.135-14.135C1186.985 1448.062 1193.312 1454.39 1193.312 1462.197zM1200.236 1562.904c0 5.814-4.716 10.525-10.529 10.525-5.813 0-10.525-4.711-10.525-10.525 0-5.813 4.712-10.523 10.525-10.523C1195.52 1552.38 1200.236 1557.091 1200.236 1562.904zM1270.596 1503.213c0 5.813-4.712 10.525-10.524 10.525-5.822 0-10.534-4.712-10.534-10.525 0-5.813 4.712-10.524 10.534-10.524C1265.885 1492.689 1270.596 1497.4 1270.596 1503.213z"/><path fill="#683e57" d="M1396.009,1458.09c0,0-0.461,3.087-1.319,8.881c-0.903,5.706-2.428,14.398-5,25.212
		c-2.483,10.823-6.228,23.911-12.05,38.517c-5.868,14.559-14.451,30.552-26.736,45.816c-12.212,15.318-27.919,29.688-45.728,42.678
		c-8.918,6.471-18.323,12.681-28.089,18.728c-9.848,6.184-23.09,11.282-35.27,13.648c-25.039,5.136-51.08,3.295-76.292-2.193
		c-25.292-5.479-49.879-15.363-72.626-29.092c-22.272-14.081-44.13-32.097-56.113-59.159c-5.772-13.386-7.816-29.525-4.098-44.174
		c1.77-7.312,4.604-14.128,8.093-20.31c1.999-3.142,3.412-5.614,6.047-9.162l5.546-6.842c3.683-4.54,7.339-9.052,10.954-13.513
		c4.247-4.422,8.449-8.799,12.61-13.133c8.187-9.018,17.403-15.742,25.838-23.189c17.94-13.412,35.704-25.12,53.495-33.199
		c8.607-4.594,17.511-7.564,25.648-11.048c8.458-2.663,16.288-5.758,23.983-7.556c15.156-4.403,28.798-6.434,39.964-8.132
		c11.261-1.308,20.134-1.959,26.298-2.022c6.067-0.261,9.713,0.307,9.713,0.307c4.929,0.776,8.295,5.398,7.529,10.336
		c-0.65,4.116-3.981,7.14-7.925,7.582l-0.352,0.036c0,0-2.591,0.289-8.214,0.578c-5.533,0.272-13.756,1.218-24.119,2.853
		c-10.322,2.013-22.917,4.396-36.818,9.071c-7.062,1.932-14.203,5.136-21.911,7.89c-7.374,3.575-15.503,6.508-23.257,11.067
		c-16.099,7.961-31.944,19.343-47.885,32.106c-7.365,7.031-15.814,13.684-22.502,21.654c-3.565,3.845-7.175,7.736-10.818,11.661
		c-3.512,4.549-7.059,9.136-10.638,13.766l-5.384,6.969l-3.57,5.749c-2.342,4.143-4.112,8.448-5.217,12.844
		c-2.253,8.784-1.21,18.081,2.626,27.223c7.547,18.531,25.021,35.068,44.378,47.651c19.687,12.529,41.816,21.935,64.309,27.784
		c22.461,5.786,45.674,8.088,66.731,4.504c10.795-1.887,19.524-4.576,29.091-9.865c9.614-5.408,18.838-10.968,27.522-16.735
		c17.331-11.573,32.296-24.226,44.003-37.713c11.779-13.44,20.219-27.666,26.267-41.034c5.994-13.404,10.11-25.725,12.935-36.069
		c2.843-10.336,4.891-18.432,6.138-24.218c1.371-5.687,2.102-8.719,2.102-8.719c0.669-2.772,3.458-4.469,6.22-3.801
		C1394.727,1452.945,1396.388,1455.49,1396.009,1458.09z"/><path fill="#683e57" d="M1494.369,1379.986c0,0,0.875,0.009,2.563,0.017c1.598,0.054,3.963,0.144,7.05,0.253
		c6.102,0.317,14.947,0.911,26.086,2.338c22.223,2.862,53.969,8.602,89.966,22.766c17.909,7.166,36.882,16.373,55.377,28.83
		c18.594,12.248,36.503,27.964,52.236,46.594c3.746,4.812,7.745,9.487,11.175,14.658l5.361,7.755
		c2.149,3.447,3.52,6.553,4.883,9.946c5.181,13.333,5.642,28.822,1.119,42.534c-4.395,13.656-13.178,25.454-22.223,34.517
		c-9.287,9.442-19.894,17.682-30.851,24.56c-22.069,13.955-46.631,22.964-71.254,28.424c-24.769,5.307-49.41,7.076-73.601,5.642
		c-13.188-1.409-24.399-5.1-35.293-9.505c-10.787-4.45-20.887-9.704-30.22-15.588c-18.676-11.734-34.472-25.635-47.001-40.195
		c-25.373-29.156-37.089-59.991-42.45-81.444c-2.626-10.833-4.026-19.47-4.757-25.375c-0.668-5.912-1.019-9.062-1.019-9.062
		c-0.344-2.988,1.805-5.687,4.792-6.021c2.951-0.334,5.614,1.751,6.011,4.677l0.037,0.287c0,0,0.406,2.99,1.164,8.594
		c0.803,5.596,2.32,13.764,5.01,23.937c5.496,20.156,17.105,48.751,41.349,75.435c11.969,13.339,26.998,25.995,44.599,36.537
		c8.782,5.29,18.27,9.948,28.216,13.81c9.83,3.811,20.689,6.879,30.636,7.709c22.16,0.849,45.791-1.299,68.565-6.733
		c22.782-5.552,45.24-14.389,64.8-27.368c9.856-6.508,18.756-13.757,26.619-22.053c8.141-8.512,13.973-17.266,16.96-26.952
		c2.889-9.541,2.32-19.56-1.309-28.46c-0.892-2.122-2.031-4.45-3.078-6.021l-4.883-6.716c-3.186-4.612-6.914-8.756-10.38-13.033
		c-14.587-16.529-31.042-30.383-48.229-41.179c-17.069-10.977-34.68-19.073-51.359-25.337
		c-33.534-12.375-63.375-17.142-84.072-19.352c-10.381-1.102-18.55-1.471-24.047-1.642c-2.709-0.037-4.794-0.064-6.192-0.082
		c-1.309,0.019-1.986,0.019-1.986,0.019l-0.317,0.009c-7.663,0.09-13.944-6.039-14.035-13.695
		c-0.099-7.663,6.029-13.945,13.693-14.035H1494.369z"/><path fill="#683e57" d="M1339.098 1572.537c0 0 6.607-1.932 16.562-3.593 9.975-1.67 23.416-2.96 36.919-2.997 6.752 0 13.503.182 19.831.74 6.327.461 12.203 1.391 17.222 2.148 5.027.759 9.153 1.814 12.041 2.51 2.879.767 4.514 1.201 4.514 1.201 2.482.649 3.963 3.194 3.304 5.668-.56 2.12-2.5 3.511-4.604 3.457l-.199-.009c0 0-1.642-.045-4.504-.118-2.835-.225-6.923-.234-11.789-.432-9.74-.371-22.719-.397-35.718-.343-26.104.45-52.199.902-52.199.902-2.573.045-4.694-2.004-4.739-4.585C1335.703 1574.947 1337.13 1573.105 1339.098 1572.537zM1616.82 2008.284c-71.687 0-146.741-44.654-174.525-84.342l15.147-10.596c29.345 41.909 122.054 91.969 194.852 71.877 22.937-6.319 39.527-20.653 49.312-42.605 14.279-32.052 10.271-72.383 1.877-89.162-1.923-3.846-3.656-7.203-5.209-10.182-11.211-21.646-13.611-27.829-7.086-56.109 5.724-24.777 6.608-61.144-9.713-82.095-9.54-12.257-24.56-18.676-44.626-19.09-.65-.019-1.3-.019-1.95-.019-72.446 0-170.382 81.787-171.374 82.618l-11.915-14.134c4.252-3.584 104.083-86.97 183.326-86.97.767 0 1.534 0 2.292.019 25.906.532 45.702 9.361 58.835 26.222 26.185 33.623 15.542 87.203 13.141 97.601-5.243 22.738-4.234 24.696 5.488 43.454 1.58 3.05 3.358 6.48 5.326 10.417 9.649 19.298 15.832 66-1.534 104.958-11.97 26.854-33.155 45.151-61.281 52.894C1644.108 2006.65 1630.524 2008.284 1616.82 2008.284z"/><path fill="#683e57" d="M1391.143,1947.87c-41.142,0-67.409-14.243-72.058-39.074l-0.613-3.232l1.57-2.889
		c0.226-0.424,24.282-47.316,3.061-139.863l-1.364-5.94l4.928-3.593c0.714-0.523,17.719-12.735,40.98-12.735
		c11.997,0,23.46,3.194,34.138,9.504c6.914-3.357,19.795-8.529,33.451-8.529c18.27,0,32.324,8.973,40.646,25.941
		c15.922,32.477,8.773,102.45-7.997,140.966c-8.015,18.413-17.846,29.497-29.21,32.927
		C1424.983,1945.496,1407.661,1947.87,1391.143,1947.87z M1337.943,1908.046c6.588,19.75,42.09,21.337,53.201,21.337
		c14.56,0,30.329-2.137,42.19-5.721c5.677-1.715,12.095-9.965,17.61-22.621c16.275-37.368,20.481-100.679,8.34-125.439
		c-5.218-10.643-12.862-15.598-24.047-15.598c-14.442,0-28.956,8.557-29.1,8.647l-5.136,3.114l-4.937-3.43
		c-8.873-6.173-18.432-9.305-28.415-9.305c-10.686,0-19.759,3.584-25.066,6.272
		C1360.111,1847.886,1343.529,1895.283,1337.943,1908.046z"/><path fill="#683e57" d="M1471.993 1813.072c0 0 9.442-3.25 23.459-7.203 14.063-4.026 32.928-8.765 51.947-12.628 19.001-3.918 38.145-6.868 52.543-8.557 7.185-.894 13.196-1.454 17.403-1.786 4.198-.371 6.598-.588 6.598-.588s-2.355.497-6.48 1.374c-4.135.829-10.01 2.102-17.015 3.845-14.018 3.376-32.504 8.557-50.664 14.642-18.17 6.028-36.025 12.88-49.185 18.43-13.242 5.516-21.609 9.586-21.609 9.586L1471.993 1813.072zM1480.396 1856.117c0 0 6.408 4.757 17.367 11.14 10.804 6.4 25.843 14.126 41.557 20.434 7.834 3.231 15.84 6.039 23.46 8.396 7.609 2.347 14.829 4.332 21.094 5.624 6.247 1.462 11.526 2.365 15.237 2.898 3.71.604 5.832.947 5.832.947s-2.148-.054-5.904-.154c-3.773-.036-9.152-.216-15.607-.84-6.463-.442-13.982-1.453-22.006-2.789-8.025-1.326-16.555-3.086-24.986-5.297-16.907-4.27-33.46-10.109-45.629-15.254-6.101-2.519-11.12-4.874-14.641-6.581-3.547-1.814-5.578-2.842-5.578-2.842L1480.396 1856.117zM1165.092 2008.284c-13.706 0-27.283-1.634-40.389-5.245-28.121-7.744-49.315-26.04-61.284-52.902-17.358-38.959-11.17-85.652-1.526-104.95 1.968-3.936 3.741-7.357 5.326-10.407 9.721-18.767 10.736-20.726 5.488-43.463-2.397-10.398-13.044-63.978 13.141-97.601 13.134-16.861 32.933-25.69 58.84-26.222.722-.009 1.448-.019 2.175-.019 79.333 0 187.658 87.673 192.28 91.447l-11.689 14.315c-1.093-.885-109.843-89.027-182.387-87.257-20.07.414-35.086 6.833-44.63 19.099-16.321 20.951-15.432 57.308-9.713 82.085 6.525 28.28 4.125 34.472-7.095 56.118-1.544 2.988-3.277 6.327-5.2 10.173-8.389 16.779-12.407 57.101 1.877 89.162 9.78 21.952 26.37 36.286 49.307 42.605 72.87 20.029 165.535-29.977 194.861-71.877l15.147 10.596C1311.838 1963.63 1236.774 2008.275 1165.092 2008.284z"/><path fill="#683e57" d="M1332.933 1830.231c0 0-8.358-4.062-21.6-9.586-13.17-5.552-31.014-12.394-49.194-18.432-18.152-6.084-36.648-11.266-50.665-14.641-7-1.742-12.876-3.005-17.005-3.845-4.125-.868-6.486-1.372-6.486-1.372s2.401.216 6.598.587c4.211.334 10.219.894 17.407 1.786 14.387 1.689 33.537 4.639 52.543 8.557 19.009 3.863 37.875 8.602 51.938 12.638 14.027 3.944 23.469 7.202 23.469 7.202L1332.933 1830.231zM1341.335 1871.842c0 0-2.031 1.038-5.586 2.844-3.521 1.704-8.531 4.06-14.641 6.58-12.159 5.144-28.713 10.984-45.629 15.254-8.421 2.21-16.96 3.972-24.985 5.297-8.02 1.337-15.534 2.347-22.006 2.8-6.45.613-11.833.793-15.602.829-3.755.099-5.903.153-5.903.153s2.121-.343 5.831-.939c3.713-.542 8.99-1.443 15.236-2.906 6.269-1.291 13.481-3.276 21.09-5.623 7.62-2.347 15.634-5.164 23.46-8.394 15.724-6.309 30.754-14.028 41.567-20.436 10.949-6.382 17.367-11.13 17.367-11.13L1341.335 1871.842zM1390.476 1744.723c0 0 .56.352 1.624 1.012 1.138.802 2.265 1.678 3.566 2.996 2.581 2.564 5.669 6.364 8.069 11.194 2.411 4.819 4.65 10.506 5.939 16.644 1.499 6.111 2.194 12.619 2.627 19.056.226 3.213.135 6.417.207 9.558.1 3.142-.235 6.21-.334 9.17-.145 5.931-1.074 11.393-1.48 16.068-1.363 9.314-2.42 15.435-2.42 15.435s-.099-6.255-.469-15.543c-.461-4.639-.542-10.055-1.471-15.751-.442-2.843-.659-5.813-1.318-8.746-.623-2.934-1.101-5.94-1.859-8.846-1.508-5.832-3.241-11.536-5.497-16.465-2.059-5.027-4.757-9.134-7.131-12.275-2.392-3.177-4.811-5.01-6.3-6.004-.722-.505-1.409-.785-1.48-.785.18.146-.317-.072-.317-.072L1390.476 1744.723zM1353.467 1923.563c0 0 .217.036.641.109.226.071.713.163 1.534.234 1.526.154 3.864.28 6.653-.019 2.816-.206 6.039-.938 9.351-2.229 1.661-.65 3.332-1.436 4.911-2.491 1.742-.868 3.059-2.311 4.684-3.502 2.861-2.754 5.38-6.077 7.311-9.586.876-1.824 1.724-3.593 2.518-5.263.588-1.796 1.138-3.494 1.652-5.063 1.182-3.151 1.344-5.966 1.85-7.889.379-1.95.605-3.061.605-3.061s.064 1.13.19 3.106c-.009 1.977.56 4.864.208 8.304-.108 1.751-.226 3.647-.343 5.651-.388 2.004-.794 4.115-1.219 6.299-1.092 4.37-2.924 8.975-5.596 13.325-1.534 2.004-2.861 4.286-4.739 6.019-1.724 1.923-3.647 3.575-5.642 5.055-3.971 2.933-8.15 5.108-11.905 6.435-3.737 1.436-7.023 2.157-9.415 2.564-1.137.208-2.193.334-3.023.388-.633.054-.976.081-.976.081L1353.467 1923.563zM1091.757 1793.203c0 0 1.842 5.147 4.134 12.692 2.324 7.592 5.199 17.736 7.6 27.982 2.432 10.236 4.379 20.553 5.506 28.306 1.169 7.755 1.57 12.943 1.57 12.943s-1.543-4.973-4.364-12.203c-2.789-7.249-6.891-16.717-11.418-25.941-4.495-9.252-9.414-18.261-13.219-24.913-3.818-6.698-6.476-10.868-6.476-10.868L1091.757 1793.203zM1706.534 1802.158c0 0-7.483 15.228-14.397 30.816-7.058 15.515-12.934 31.592-12.934 31.592s1.371-17.133 4.052-34.175c2.528-17.041 5.731-34.065 5.731-34.065L1706.534 1802.158zM930.64 705.915l-122.6-377.241 5.221-5.929c3.998-4.54 99.791-112.117 259.305-180.736 147.699-63.545 379.145-103.162 642.921 68.906l5.741 3.738 28.244 374.765-27.657 2.078-27.206-361.074c-201.342-129.213-406.566-150.541-610.137-63.348-133.595 57.228-223.055 145.216-245.098 168.296L957.016 697.34 930.64 705.915z"/><path fill="#683e57" d="M1056.062 902.77l56.771-15.163c18.87-5.164 37.893-10.039 57.028-14.677l57.254-14.19 57.372-13.288c19.1-4.54 38.282-8.692 57.462-12.825l57.542-12.411 57.634-11.952c19.198-4.053 38.496-7.609 57.732-11.436 19.244-3.809 38.507-7.528 57.805-11.012l57.886-10.578c38.624-6.879 77.293-13.44 116.007-19.759 77.483-12.475 154.938-24.408 232.934-34.265l-7.338 5.813 8.565-27.25 2.726-13.892c.731-4.649 2.247-9.243 2.356-13.918l1.037-13.993c.632-4.685.037-9.287-.172-13.918-.479-4.585-.036-9.343-1.237-13.793l-2.644-13.539c-1.354-4.368-2.961-8.656-4.405-12.998-1.291-4.413-3.917-8.231-5.777-12.402-1.796-4.225-4.729-7.79-7.176-11.644-2.338-3.944-5.596-7.22-8.494-10.759-2.79-3.655-6.472-6.499-9.677-9.775-3.394-3.097-7.086-5.876-10.732-8.675-3.818-2.581-7.591-5.226-11.635-7.41-3.872-2.285-8.287-4.369-11.916-5.85l6.129-.126-68.176 25.013c-22.557 8.846-45.791 15.57-68.916 22.665l-34.652 10.733-17.321 5.37-17.539 4.585-70.19 18.233c-23.423 5.966-47.171 10.488-70.739 15.796l-35.419 7.691-35.645 6.499c-23.794 4.171-47.506 8.846-71.354 12.61l-71.66 10.66c-23.875 3.665-47.913 6.012-71.868 9.08l-35.952 4.324-36.042 3.592c-24.024 2.339-48.03 5.01-72.121 6.652-24.078 1.743-48.124 4.054-72.233 5.318-24.109 1.29-48.196 3.059-72.329 3.961-24.132.894-48.25 2.195-72.405 2.609-24.141.731-48.296 1.083-72.464 1.354-24.203.245-48.282.245-72.693-.244l6.396-1.571c-1.937 1.246-5.461 4.253-8.061 6.825-2.716 2.825-5.429 5.732-7.795 9.009-2.585 3.069-4.585 6.67-6.828 10.036-2.063 3.52-3.849 7.248-5.764 10.868l-4.694 11.509-3.673 11.997c-1.052 4.06-1.769 8.25-2.686 12.357-1.046 4.079-1.313 8.368-1.859 12.582-.416 4.244-1.246 8.413-1.201 12.737l-.428 12.87c-.329 4.271.266 8.639.352 12.945l.632 12.962 1.603 12.981c.587 4.313.943 8.645 1.702 12.96l5.018 25.808-27.088 5.938-4.87-27.611c-.726-4.622-1.06-9.333-1.602-14l-1.467-14.017-.46-14.173c-.023-4.739-.546-9.432-.127-14.207l.722-14.27c.064-4.748 1.029-9.513 1.589-14.261.7-4.757 1.124-9.524 2.373-14.227 1.115-4.711 2.04-9.449 3.346-14.126l4.535-13.899 5.799-13.539c2.356-4.36 4.6-8.765 7.19-13.009 2.802-4.133 5.356-8.402 8.652-12.256 3.032-4 6.544-7.7 10.177-11.312 3.98-3.637 7.239-6.705 13.002-10.252l2.781-1.717 3.615.137c23.735.885 47.826 1.308 71.792 1.479 23.996.227 48.001.009 72.017-.459 24.009-.171 48.011-1.237 72.021-1.887 24.009-.667 47.989-2.193 71.986-3.239 24.005-1.02 47.939-3.087 71.917-4.586 23.988-1.398 47.89-3.826 71.819-5.92l35.897-3.222 35.79-4.109c23.829-2.977 47.768-5.235 71.516-8.809l71.3-10.371c23.73-3.657 47.307-8.233 70.974-12.304l35.455-6.345 35.203-7.528c23.433-5.2 47.054-9.612 70.325-15.461l69.729-17.873 17.421-4.495 17.195-5.272 34.39-10.552c22.9-7.103 45.945-13.836 68.23-22.665l67.418-24.949 3.33-1.236 2.808 1.11c5.479 2.184 9.947 4.377 14.569 7.022 4.621 2.491 8.927 5.453 13.251 8.386 4.152 3.149 8.34 6.3 12.222 9.802 3.691 3.7 7.834 6.968 11.075 11.121 3.367 4.025 7.041 7.807 9.794 12.321 2.852 4.405 6.165 8.548 8.304 13.386 2.212 4.765 5.145 9.234 6.698 14.261 1.706 4.966 3.538 9.911 5.082 14.913l3.078 15.39c1.318 5.108.93 10.344 1.462 15.515.262 5.183.867 10.39.227 15.508l-1.093 15.418c-.154 5.181-1.707 10.081-2.491 15.127l-2.943 15.048-9.017 29.038-1.58 5.072-5.758.74c-38.678 4.982-77.455 10.589-116.124 16.437-38.678 5.858-77.311 12.096-115.871 18.702-38.561 6.662-77.077 13.549-115.53 20.762L1576.518 806c-19.217 3.655-38.389 7.536-57.543 11.508-19.145 3.989-38.344 7.709-57.443 11.924l-57.336 12.43c-19.117 4.133-38.1 8.819-57.155 13.196-19.046 4.424-38.091 8.874-57.028 13.693l-56.911 14.154-56.591 14.992c-18.865 4.902-37.713 10.047-56.55 15.534l-56.524 16.077L1056.062 902.77zM1055.169 1351.959h-.014c-71.936 0-131.469-9.513-132.061-9.605l-3.758-.613-2.239-3.069c-101.939-140.081-76.002-329.951-74.846-337.966l1.078-7.483 7.55-.424c42.849-2.42 86.278-3.637 129.091-3.637 193.985 0 321.794 25.111 323.067 25.364l7.844 1.571-.425 7.987c-8.114 151.861-93.535 298.43-97.164 304.595l-1.823 3.087-3.43 1.056C1166.676 1345.514 1115.238 1351.959 1055.169 1351.959zM929.801 1324.672c13.969 2.022 65.197 8.801 125.349 8.801h.014c56.546 0 104.945-5.813 143.966-17.277 12.136-21.6 82.723-152.292 92.354-284.989-30.51-5.335-146.792-23.56-311.513-23.56-39.879 0-80.304 1.074-120.276 3.177C856.07 1046.975 845.829 1206.255 929.801 1324.672z"/><path fill="#683e57" d="M1061.026,1440.806c-114.26,0-185.131-33.298-188.674-35.004l-2.36-1.129l-1.783-1.914
		c-98.639-105.906-115.84-313.332-118.71-368.772h-56.92l-4.039-6.733c-29.805-49.672-23.094-112.362-22.793-115.007l1.404-12.383
		l12.457,0.081c5.325,0.037,533.694,3.575,709.044,25.924h28.686c175.356-22.349,703.714-25.887,709.039-25.924l12.457-0.081
		l1.408,12.383c0.298,2.645,7.013,65.335-22.792,115.007l-4.034,6.733h-56.93c-2.87,55.44-20.065,262.866-118.706,368.772
		l-2.681,2.879l-3.8,1.038c-6.508,1.786-161.004,43.372-317.901,23.622l3.467-27.513c138.031,17.393,278.635-15.643,303.313-21.87
		c102.278-113.905,109.075-358.627,109.129-361.109l0.316-13.549h67.77c14.416-28.352,16.202-61.072,15.931-78.484
		c-83.322,0.713-535.932,5.451-693.334,25.707l-1.769,0.118l-32.224-0.118c-157.393-20.256-609.939-24.994-693.311-25.707
		c-0.239,17.438,1.571,50.24,15.909,78.484h67.77l0.311,13.549c0.06,2.482,6.888,248.506,109.946,362.011
		c15.562,6.69,109.937,43.887,247.034,26.646l3.466,27.512C1110.058,1439.388,1084.608,1440.806,1061.026,1440.806z"/><path fill="#683e57" d="M1750.844 1351.959c-60.088 0-111.53-6.444-152.888-19.136l-3.43-1.056-1.822-3.087c-3.638-6.165-89.055-152.735-97.169-304.595l-.424-7.987 7.844-1.571c1.273-.253 129.086-25.364 323.071-25.364 42.813 0 86.248 1.217 129.095 3.637l7.546.424 1.083 7.483c1.146 8.015 27.089 197.885-74.856 337.966l-2.238 3.069-3.755.613C1882.305 1342.446 1822.767 1351.959 1750.844 1351.959zM1606.865 1316.196c39.012 11.464 87.43 17.277 143.979 17.277 60.152 0 111.377-6.778 125.341-8.801 84.081-118.544 73.763-277.715 70.126-313.848-39.978-2.103-80.407-3.177-120.286-3.177-164.857 0-281.027 18.216-311.518 23.551C1524.138 1163.904 1594.724 1294.596 1606.865 1316.196zM1517.441 1400.24c-2.681 0-5.326-1.155-7.158-3.384-57.417-70.018-71.336-185.971-73.673-210.298-42.767-29.055-78.097-7.599-87.998-.289-13.55 132.02-86.763 196.144-89.904 198.843-3.863 3.312-9.685 2.879-13.011-1.003-3.327-3.863-2.889-9.693.97-13.024.722-.624 72.175-63.637 83.919-190.449l.343-3.655 2.752-2.428c.542-.478 54.33-46.774 117.235-.515l3.421 2.519.316 4.233c.1 1.31 10.634 132.038 69.927 204.348 3.232 3.946 2.663 9.768-1.291 13.007C1521.574 1399.556 1519.498 1400.24 1517.441 1400.24zM1444.083 1085.085h-85.732l42.866-100.69L1444.083 1085.085zM1386.314 1066.599h29.805l-14.902-35.013L1386.314 1066.599zM892.206 1393.923c0 0-.018 1.236-.049 3.564-.023 2.393.044 6.013.22 10.626.348 9.234 1.097 22.573 3.498 38.379 2.45 15.77 5.777 34.192 11.947 53.13 2.892 9.532 6.711 19.054 10.822 28.622 4.337 9.432 8.814 19.056 14.411 28.001 5.311 9.134 11.616 17.601 18.057 25.77 6.743 7.897 13.765 15.389 21.226 21.943 7.46 6.553 15.078 12.465 22.611 17.701 3.845 2.536 7.587 4.992 11.202 7.374 3.769 2.185 7.41 4.298 10.908 6.328 7.126 3.835 13.784 7.32 19.849 10.092 6.143 2.536 11.36 5.425 15.91 7.058 9.049 3.44 14.248 5.768 14.248 5.768s-5.578-.298-15.399-1.453c-4.96-.397-10.787-1.751-17.584-3.123-6.801-1.363-14.212-3.899-22.384-6.553-7.97-3.151-16.668-6.626-25.315-11.509-8.692-4.767-17.561-10.443-26.099-17.195-8.616-6.662-16.857-14.37-24.832-22.612-7.664-8.503-15.205-17.438-21.699-27.105-6.77-9.505-12.448-19.688-17.769-29.823-4.883-10.336-9.414-20.662-12.93-30.934-7.297-20.462-12.005-40.194-14.655-57.29-2.686-17.097-3.647-31.51-4.017-41.666-.099-5.091-.099-9.108-.026-11.914.099-2.872.149-4.405.149-4.405.257-7.655 6.67-13.648 14.32-13.386 7.555.251 13.494 6.508 13.39 14.034L892.206 1393.923zM1940.389 1392.695c0 0 .054 1.534.154 4.405.072 2.806.072 6.823-.028 11.914-.369 10.156-1.326 24.569-4.016 41.666-2.653 17.095-7.356 36.828-14.659 57.29-3.512 10.272-8.042 20.599-12.926 30.934-5.316 10.135-11.002 20.318-17.773 29.823-6.49 9.667-14.036 18.603-21.69 27.105-7.979 8.242-16.221 15.95-24.832 22.612-8.539 6.752-17.411 12.428-26.105 17.195-8.646 4.883-17.348 8.358-25.318 11.509-8.169 2.654-15.581 5.19-22.386 6.553-6.788 1.372-12.618 2.725-17.583 3.123-9.821 1.155-15.399 1.453-15.399 1.453s5.208-2.328 14.253-5.768c4.549-1.633 9.767-4.521 15.904-7.058 6.067-2.772 12.728-6.257 19.859-10.092 3.492-2.03 7.13-4.143 10.903-6.328 3.62-2.383 7.356-4.838 11.203-7.374 7.536-5.235 15.145-11.148 22.611-17.701 7.455-6.553 14.486-14.046 21.23-21.943 6.435-8.169 12.736-16.636 18.053-25.77 5.596-8.945 10.073-18.568 14.415-28.001 4.107-9.567 7.924-19.09 10.822-28.622 6.165-18.938 9.487-37.36 11.942-53.13 2.401-15.806 3.149-29.145 3.502-38.379.172-4.613.235-8.233.217-10.626-.036-2.328-.054-3.564-.054-3.564v-.56c-.117-7.655 6.002-13.946 13.657-14.063C1933.899 1379.191 1940.136 1385.175 1940.389 1392.695zM1266.66 1628.979c-.026-.056.922.93 2.42 2.156 1.444 1.282 3.728 3.115 6.806 5.569 2.915 2.519 6.906 5.155 11.228 8.377 4.666 2.789 9.532 6.517 15.39 9.676 2.879 1.644 5.885 3.357 8.99 5.136 3.223 1.516 6.563 3.087 9.993 4.703 3.366 1.751 7.004 3.078 10.741 4.377 3.728 1.319 7.419 3.007 11.338 4.171 7.934 1.932 15.958 4.748 24.47 5.605 4.224.551 8.449 1.563 12.745 1.769l12.971.335c2.157.036 4.333.27 6.49.154l6.445-.705c4.306-.442 8.593-.885 12.844-1.327 8.413-1.571 16.582-3.918 24.615-5.704 7.745-2.979 15.228-5.85 22.332-8.576 7.068-2.889 13.188-6.969 19.19-10.019 5.921-3.204 11.482-6.011 15.859-9.432 4.549-3.16 8.521-5.912 11.789-8.178 6.653-4.476 10.444-7.04 10.444-7.04l.677-.452c3.169-2.129 7.465-1.299 9.595 1.869 1.959 2.905 1.417 6.761-1.128 9.026 0 0-3.575 3.187-9.829 8.765-3.178 2.763-7.041 6.12-11.464 9.965-2.284 1.852-4.459 4.143-7.221 5.966-2.781 1.824-5.705 3.728-8.747 5.724-6.228 3.781-12.565 8.619-20.093 12.383-7.654 3.53-15.671 7.519-24.209 11.102-8.945 2.482-18.115 5.614-27.702 7.672-4.883.641-9.812 1.282-14.749 1.931l-7.437.939c-2.492.189-5.01.028-7.519.056l-15.029-.272c-4.991-.244-9.876-1.318-14.759-1.949-9.883-.967-19.027-4.315-28.053-6.744-8.701-3.294-17.241-6.364-24.67-10.488-3.755-1.985-7.402-3.925-10.922-5.804-3.367-2.122-6.616-4.18-9.739-6.156-6.354-3.755-11.473-8.251-16.248-11.816-4.505-3.97-8.548-7.211-11.59-10.308-3.122-2.889-5.497-5.479-7.139-7.303-1.688-1.796-2.31-2.626-2.31-2.626l-.487-.632c-3.034-3.998-2.257-9.693 1.741-12.728C1258.392 1625.359 1263.501 1625.791 1266.66 1628.979zM1817.161 749.503c0 0 7.844 8.747 17.754 22.728 4.993 7.014 10.399 15.472 15.941 24.706 5.417 9.297 10.932 19.397 15.842 29.823 4.992 10.389 9.496 21.039 13.052 31.304 1.787 5.136 3.583 10.064 4.82 14.921 1.308 4.829 2.78 9.286 3.564 13.62 2.005 8.512 2.998 15.761 3.593 20.85.659 5.065.839 7.98.839 7.98.335 5.136-3.564 9.569-8.701 9.903-4.034.261-7.644-2.094-9.161-5.605l-.243-.588c0 0-1.093-2.545-2.681-7.039-1.417-4.523-4.07-10.823-6.923-18.433-5.904-15.172-14.234-35.211-23.387-55.052-9.162-19.821-19.172-39.4-26.737-54.096-3.773-7.356-6.896-13.521-9.224-17.727-2.212-4.233-3.475-6.66-3.475-6.66l-.054-.109c-2.384-4.549-.614-10.173 3.944-12.555C1809.768 745.459 1814.381 746.416 1817.161 749.503zM1982.822 725.077c0 0 .623.579 1.805 1.661 1.191 1.147 2.979 2.754 5.065 4.875 4.188 4.268 10.164 10.353 16.933 17.999 6.752 7.663 14.315 16.87 21.997 27.096 7.654 10.237 15.39 21.502 22.584 33.156 3.52 5.884 7.167 11.669 10.281 17.691 3.142 5.993 6.481 11.742 9.045 17.701 2.646 5.912 5.488 11.453 7.473 17.095 2.068 5.588 4.324 10.705 5.769 15.733 3.232 9.912 5.263 18.351 6.4 24.362 1.264 5.957 1.787 9.387 1.787 9.387.785 5.063-2.69 9.802-7.754 10.589-4.152.64-8.087-1.58-9.802-5.2l-.316-.669c0 0-1.399-2.969-3.52-8.195-1.102-2.6-2.239-5.804-3.9-9.37-1.752-3.537-3.566-7.581-5.525-11.978-1.958-4.396-4.477-9.043-6.86-14.025-2.365-4.984-5.262-10.12-8.052-15.481-2.753-5.38-6.002-10.786-9.044-16.383-3.078-5.588-6.598-11.076-9.776-16.735-13.449-22.276-28.162-43.966-39.373-60.16-5.605-8.098-10.289-14.866-13.711-19.461-3.321-4.641-5.217-7.284-5.217-7.284l-.127-.172c-2.987-4.169-2.031-9.965 2.14-12.953C1974.762 721.747 1979.654 722.152 1982.822 725.077z"/><path fill="#683e57" d="M973.398,1607.261c0,0,1.553,7.781,4.988,19.731c3.433,11.833,8.755,27.495,15.651,42.513
		c3.425,7.52,7.329,14.795,11.297,21.475c2.126,3.221,4.107,6.426,6.142,9.341c2.162,2.844,4.206,5.524,6.093,7.998
		c2.099,2.311,4.026,4.422,5.732,6.3c1.638,1.978,3.457,3.25,4.779,4.523c2.753,2.435,4.324,3.835,4.324,3.835
		s-1.747-1.174-4.811-3.214c-1.489-1.082-3.53-2.137-5.434-3.871c-1.991-1.661-4.234-3.539-6.684-5.578
		c-2.267-2.247-4.717-4.694-7.312-7.267c-2.486-2.69-4.951-5.667-7.605-8.692c-4.991-6.253-10.046-13.178-14.631-20.408
		c-9.212-14.452-16.929-29.806-22.182-41.585c-5.204-11.697-8.142-20.102-8.142-20.102l-0.046-0.126
		c-1.692-4.83,0.858-10.119,5.692-11.806c4.828-1.689,10.118,0.857,11.806,5.686
		C973.195,1606.412,973.312,1606.864,973.398,1607.261z"/><path fill="#683e57" d="M844.795,1756.476c-2.103,0-4.215-0.712-5.952-2.175c-3.904-3.286-4.4-9.117-1.11-13.026
		c68.378-81.157,131.852-99.48,134.524-100.221c4.933-1.344,10.015,1.527,11.373,6.437c1.364,4.911-1.506,10-6.413,11.372
		c-0.6,0.172-60.968,17.917-125.349,94.326C850.04,1755.356,847.427,1756.476,844.795,1756.476z"/><path fill="#683e57" d="M896.584,1999.601c-2.911,0-5.772-1.372-7.569-3.927
		c-15.204-21.628-372.897-531.003-424.663-649.249c-28.988-66.218-16.988-143.818,29.177-188.723
		c39.513-38.434,94.881-45.06,151.914-18.179c157.293,74.123,88.377,230.623,87.659,232.194l-8.128,17.89l-8.598-17.674
		c-50.606-104.083-95.196-115.329-107.658-116.304c-11.161-0.849-20.395,3.421-26.641,12.402
		c-16.821,24.182,17.774,85.309,31.218,104.813l358.966,554.951c2.771,4.287,1.544,10.011-2.744,12.782
		c-4.279,2.77-10.005,1.543-12.781-2.744l-358.811-554.724c-5.894-8.548-58.153-86.627-31.02-125.639
		c10.055-14.451,25.472-21.573,43.245-20.273c36.999,2.879,77.595,41.711,113.019,107.442
		c11.906-40.999,25.094-136.226-85.607-188.398c-49.658-23.388-97.462-18.045-131.148,14.713
		c-40.754,39.644-51.09,108.75-25.129,168.053c51.03,116.566,419.14,640.754,422.85,646.034c2.937,4.18,1.931,9.948-2.244,12.881
		C900.276,1999.06,898.421,1999.601,896.584,1999.601z"/><path fill="#683e57" d="M887.608,2046.501c0,0-0.398-5.198-0.221-13.738c0.324-8.61,0.992-20.914,4.133-35.582
		c3.372-14.488,8.756-31.962,21.51-47.803c6.341-7.835,14.984-14.741,24.966-19.118c9.983-4.441,21.018-6.111,31.471-5.777
		c10.475,0.369,20.575,2.257,30.004,5.117c3.593,1.055,4.473,1.571,7.311,2.781c2.917,1.417,5.597,3.014,7.795,4.819
		c4.585,3.629,8.241,8.304,10.714,13.197c4.757,9.955,5.465,19.858,5.194,28.604c-0.51,8.801-2.099,16.708-3.891,23.838
		c-3.592,14.263-8.458,25.302-11.937,32.948c-3.502,7.635-6.008,11.824-6.008,11.824c-1.006,1.687-3.195,2.248-4.883,1.237
		c-1.489-0.894-2.094-2.699-1.526-4.27c0,0,1.562-4.315,4.008-12.041c2.383-7.717,5.511-18.928,7.741-32.314
		c1.038-6.688,1.759-13.972,1.485-21.365c-0.199-7.339-1.445-14.902-4.767-20.788c-1.706-2.879-3.877-5.253-6.521-7.121
		c-1.385-1.02-2.708-1.608-3.931-2.203c-1.377-0.551-4.806-1.797-5.71-1.833c-8.39-2.21-16.964-3.592-25.305-3.672
		c-8.335-0.065-16.346,1.462-23.252,4.756c-6.951,3.241-12.718,8.268-17.511,14.072c-9.609,11.762-14.592,26.655-17.511,39.463
		c-3.052,12.908-4.039,24.199-4.518,32.018c-0.474,7.924-0.375,12.139-0.375,12.139c0.122,5.1-3.918,9.333-9.023,9.46
		c-4.932,0.116-9.052-3.647-9.436-8.512L887.608,2046.501z"/><path fill="#683e57" d="M1018.566,1983.408c0,0,0.533-0.641,1.534-1.859c0.985-1.173,2.51-2.789,4.6-4.684
		c4.13-3.801,10.561-9.081,20.612-12.493c5.037-1.67,11.125-2.473,17.664-1.77c6.738,0.759,12.891,3.584,18.924,8.088l3.222,2.708
		l3.904,4.296c2.469,2.969,4.161,5.794,5.827,8.926c3.244,6.219,4.972,12.917,6.056,19.552c0.867,6.651,0.989,13.277,0.348,19.631
		c-0.623,6.364-1.999,12.447-3.668,18.152c-1.625,5.74-3.796,11.003-5.855,15.984c-2.405,4.785-4.399,9.47-6.976,13.342
		c-2.352,4.017-4.663,7.563-6.906,10.57c-2.135,3.078-4.039,5.723-5.796,7.745c-3.429,4.096-5.393,6.434-5.393,6.434
		c-2.27,2.699-6.3,3.061-9.009,0.787c-2.508-2.103-2.992-5.723-1.24-8.396l0.238-0.369c0,0,1.557-2.375,4.283-6.536
		c1.445-2.012,2.993-4.585,4.698-7.564c1.819-2.924,3.638-6.317,5.43-10.109c1.973-3.71,3.606-7.899,5.525-12.25
		c1.575-4.458,3.258-9.142,4.391-14.108c1.228-4.928,1.995-10.09,2.41-15.264c0.479-5.172,0.29-10.371-0.397-15.38
		c-0.885-4.939-2.184-9.758-4.387-13.811c-1.042-1.94-2.409-4.07-3.574-5.425c-0.6-0.658-1.16-1.336-1.692-2.049l-3.186-2.626
		c-2.753-1.995-6.458-4.18-9.857-4.531c-3.48-0.686-7.063-0.461-10.552,0.143c-6.947,1.571-13.066,4.531-17.12,6.87
		c-2.057,1.155-3.569,2.229-4.653,2.879c-0.993,0.613-1.517,0.984-1.557,1.029l-0.217,0.154c-2.49,1.833-5.993,1.299-7.821-1.202
		C1016.828,1988.173,1016.978,1985.34,1018.566,1983.408z"/><path fill="#683e57" d="M1095.413 2037.901c-.176-.082.993.45 2.591 1.524 1.597 1.021 3.696 2.654 6.173 5.055 4.865 4.756 10.895 13.187 13.815 25.184 3.208 11.924 2.767 26.745-.605 42.549l-.619 2.997c-.46 1.942-.658 2.157-1.01 3.331-.623 1.897-1.26 3.818-1.905 5.777-1.015 3.828-3.696 8.214-5.614 12.448-4.473 8.276-9.816 16.066-16.256 23.684-12.808 15.164-29.336 29.173-48.964 40.447-19.591 11.266-42.419 19.65-66.984 23.116-24.557 3.764-50.683 1.353-75.583-5.596l-9.406-2.573c-3.118-.93-6.06-2.337-9.103-3.483-6.119-2.592-11.933-4.514-18.342-7.7l-16.77-8.964c-5.637-2.69-11.058-7.093-16.592-10.587-11.427-7.022-20.824-16.023-30.946-24.272-9.009-9.395-18.699-18.143-26.339-28.577-8.494-9.74-15.173-20.679-22.024-31.322-3.475-5.29-5.89-11.148-8.846-16.644-2.807-5.578-5.821-11.022-7.748-16.898-2.172-5.759-4.328-11.472-6.464-17.14-2.004-5.706-3.127-11.635-4.698-17.35-3.479-11.401-4.396-23.052-5.984-34.254-1.033-5.597-.722-11.202-.88-16.7-.068-5.506-.136-10.93-.199-16.256.858-10.606 2.153-20.841 3.227-30.663 2.265-9.622 4.437-18.829 6.499-27.594 2.64-8.583 5.908-16.482 8.584-24.036 2.442-7.672 6.188-14.171 9.275-20.363 3.145-6.156 6.034-11.817 8.642-16.934 12.61-19.099 19.813-30.022 19.813-30.022 2.807-4.251 8.535-5.425 12.79-2.619 4.255 2.808 5.425 8.54 2.618 12.791l-.04.063-.57.848c0 0-6.878 10.237-18.911 28.155-2.476 4.774-5.221 10.063-8.208 15.813-2.938 5.777-6.548 11.852-8.837 18.983-2.531 7.022-5.669 14.37-8.205 22.34-1.986 8.133-4.075 16.681-6.255 25.598-1.03 9.108-2.32 18.595-3.223 28.434.027 4.947.054 9.974.086 15.074.108 5.108-.271 10.317.677 15.515 1.43 10.417 2.121 21.258 5.321 31.9 1.431 5.335 2.393 10.867 4.229 16.211 1.955 5.299 3.926 10.652 5.918 16.049 1.728 5.516 4.535 10.615 7.126 15.869 2.74 5.162 4.92 10.687 8.156 15.669 6.368 10.019 12.52 20.374 20.463 29.589 7.086 9.901 16.183 18.162 24.578 27.124 9.437 7.772 18.437 16.546 28.709 22.908 5.185 3.305 9.572 7.204 15.404 10.057l16.695 9.108c4.895 2.472 11.089 4.675 16.54 7.031 2.834 1.102 5.578 2.463 8.467 3.34l8.715 2.437c23.076 6.643 47.109 9.089 69.787 5.777 45.566-6.03 84.275-30.419 107.928-58.049 11.992-14.117 19.836-28.018 23.054-42.568 3.2-14.39 3.557-27.279 1.002-36.919-2.306-9.766-6.896-16.085-10.43-19.641-1.797-1.751-3.3-2.952-4.297-3.592-.948-.65-1.242-.767-1.408-.868-2.934-1.479-4.103-5.063-2.618-7.997C1088.895 2037.584 1092.479 2036.411 1095.413 2037.901zM1849.467 1607.811c0 0 .072.532.19 1.535.172 1.228.235 2.671.316 4.504.045 3.655 0 8.782-.957 14.722-.966 5.929-2.473 12.754-5.236 19.587-2.509 6.924-6.354 13.729-10.497 20.175-2.338 3.05-4.468 6.218-6.915 9.035-2.554 2.735-4.892 5.551-7.438 7.989-2.599 2.354-5.118 4.63-7.501 6.787-2.545 1.931-4.955 3.755-7.175 5.442-4.324 3.485-8.512 5.562-11.175 7.339-2.727 1.689-4.288 2.645-4.288 2.645s1.391-1.192 3.828-3.286c2.355-2.184 6.092-4.829 9.757-8.9 1.878-1.95 3.918-4.071 6.066-6.31 1.94-2.409 3.98-4.945 6.093-7.573 2.022-2.662 3.781-5.659 5.731-8.538 1.842-2.952 3.322-6.174 5.001-9.235 2.788-6.417 5.226-12.906 6.408-19.216 1.444-6.238 1.77-12.169 1.787-17.142.009-5.001-.632-9.044-1.093-11.751-.288-1.346-.504-2.401-.667-2.862-.2-.677-.298-1.038-.298-1.038l-.073-.244c-1.408-4.928 1.444-10.064 6.373-11.472 4.928-1.408 10.065 1.445 11.472 6.373C1849.314 1606.836 1849.412 1607.351 1849.467 1607.811z"/><path fill="#683e57" d="M1843.401 1657.276c0 0 1.264.975 3.881 3.357 2.698 2.321 6.201 5.723 10.678 10.073 4.288 4.486 9.686 9.803 15.255 16.392 2.789 3.284 5.758 6.787 8.891 10.479 2.915 3.854 5.975 7.908 9.171 12.141 6.481 8.413 12.583 18.152 19.253 28.297 5.985 10.561 12.791 21.455 18.287 33.516 2.861 5.976 5.967 11.961 8.737 18.179 2.555 6.319 5.146 12.718 7.755 19.164l3.899 9.71 3.168 10.039c2.085 6.715 4.18 13.457 6.282 20.2 3.828 13.577 6.49 27.459 9.722 40.953 2.004 13.719 3.972 27.232 5.885 40.302.75 13.162 1.481 25.888 2.167 37.956.523 6.03.252 11.897.072 17.575-.163 5.677-.317 11.157-.469 16.419-.406 10.506-.434 20.166-1.787 28.614-1.029 8.465-1.923 15.85-2.663 21.933-1.481 12.141-2.32 19.082-2.32 19.082-.623 5.055-5.226 8.656-10.282 8.042-4.919-.594-8.466-4.971-8.087-9.864l.063-.778c0 0 .532-6.761 1.462-18.585.47-5.903 1.039-13.069 1.688-21.302 1.002-8.205.524-17.511.623-27.639.028-5.063.054-10.336.081-15.787.054-5.46.189-11.102-.461-16.861-.939-11.536-1.913-23.703-2.934-36.286-1.94-12.448-3.953-25.309-5.993-38.38-3.205-12.825-5.813-26.023-9.559-38.894-2.04-6.392-4.089-12.773-6.12-19.136l-3.069-9.515-3.665-9.234c-2.411-6.137-4.794-12.231-7.158-18.252-2.564-5.929-5.461-11.635-8.106-17.33-5.046-11.536-11.518-21.835-16.925-32.018-6.011-9.785-11.5-19.244-17.366-27.385-2.898-4.107-5.668-8.043-8.314-11.781-2.789-3.62-5.443-7.048-7.942-10.271-4.902-6.527-9.668-11.77-13.441-16.222-3.926-4.278-7.023-7.654-9.117-9.675-2.021-2.095-3.411-3.314-3.411-3.314-3.828-3.367-4.198-9.206-.83-13.033 3.232-3.674 8.737-4.171 12.555-1.228L1843.401 1657.276zM1243.463 2525.577c-3.033 0-6.002-1.49-7.771-4.225l-203.924-315.417c-2.771-4.287-1.544-10.01 2.744-12.78 4.292-2.772 10.007-1.544 12.781 2.742l203.924 315.417c2.772 4.289 1.544 10.011-2.743 12.782C1246.92 2525.097 1245.182 2525.577 1243.463 2525.577zM1315.385 2480.544c-3.014 0-5.976-1.471-7.745-4.189l-214.092-327.712c-2.788-4.268-1.588-10 2.686-12.79 4.274-2.799 10.006-1.597 12.794 2.68l214.083 327.712c2.799 4.27 1.597 10.002-2.681 12.79C1318.87 2480.057 1317.118 2480.544 1315.385 2480.544zM609.361 1385.681l-7.064-137.851c-2.428 1.301-4.846 2.628-7.366 3.756-8.968 4.025-16.315 6.326-26.09 7.374-.614 2.22-1.486 4.341-2.672 6.3l2.73 53.372c8.318 9.496 13.354 20.608 18.577 33.137C592.711 1364.325 601.183 1374.922 609.361 1385.681zM742.576 735.557c5.885-9.269 10.281-19.09 18.052-27.268 1.101-1.156 2.311-2.158 3.593-3.025L559.986 592.995c-5.867-3.232-13.034-3.016-18.72.532-5.678 3.565-8.991 9.92-8.648 16.617l26.691 521.201c4.193-.713 8.435-1.083 12.673-.615 8.507.939 16.559 2.78 24.48 3.16l-25.22-492.516L742.576 735.557z"/><path fill="#683e57" d="M2541.761 1682.396l-589.205-323.893-2.807 11.238c-2.5 9.984-11.599 16.717-21.41 17.646l568.353 312.429L684.911 2861.006l-66.01-1289.011c-11.875-16.076-27.454-30.672-39.432-47.019L649.613 2894.7c.339 6.581 4.153 12.484 10.011 15.49 2.663 1.372 5.56 2.049 8.454 2.049 3.475 0 6.946-.984 9.974-2.925l1864.775-1195.155c5.489-3.52 8.72-9.667 8.504-16.184C2551.113 1691.458 2547.476 1685.538 2541.761 1682.396zM904.997 586.856c0 0 2.996-1.417 8.611-4.07 5.714-2.735 14.067-6.319 24.687-10.887 10.706-4.341 23.631-9.802 38.71-15.318 7.528-2.78 15.543-5.73 23.992-8.836 8.512-2.907 17.465-5.966 26.807-9.153 18.568-6.707 39.211-12.33 60.748-19.144 21.87-5.687 44.698-12.548 68.735-17.972 11.987-2.825 24.178-5.704 36.517-8.61 12.352-2.836 25.012-4.975 37.69-7.53 12.718-2.309 25.427-5.28 38.389-7.095 12.944-1.931 25.932-3.88 38.922-5.83l19.479-2.934 19.533-2.212c12.998-1.427 25.96-2.844 38.814-4.261 12.836-1.661 25.643-2.311 38.299-3.052 12.654-.767 25.156-1.524 37.449-2.274 12.294-.984 24.408-1.084 36.26-1.11 11.86-.18 23.459-.362 34.751-.532 22.612-.84 43.941.433 63.654 1.19 9.856.388 19.307.768 28.288 1.128 8.991.272 17.529.443 25.499 1.363 15.976 1.453 29.896 2.708 41.368 3.747 22.963 2.085 36.078 3.277 36.078 3.277l-2.536 18.306c0 0-12.908-1.625-35.483-4.478-11.301-1.427-25.021-3.159-40.763-5.145-15.724-2.193-33.65-2.553-53.138-3.917-19.507-1.136-40.627-2.825-63.032-2.437-11.201-.045-22.7-.099-34.462-.154-11.761-.064-23.776-.036-35.97.868-12.203.658-24.605 1.326-37.17 2.004-12.556.658-25.283 1.208-38.028 2.78-12.764 1.316-25.635 2.645-38.552 3.98l-19.407 2.058-19.316 2.997c-12.881 2.004-25.761 4.017-38.597 6.021-12.853 1.867-25.454 4.9-38.063 7.275-12.56 2.609-25.111 4.802-37.351 7.691-12.222 2.96-24.299 5.884-36.174 8.765-11.928 2.68-23.496 5.92-34.769 9.286-11.293 3.269-22.346 6.465-33.1 9.569-21.216 7.157-41.553 13.088-59.8 20.065-9.162 3.367-17.945 6.59-26.298 9.65-8.237 3.348-16.049 6.517-23.397 9.496-14.694 5.931-27.228 11.716-37.595 16.319-10.267 4.821-18.332 8.602-23.608 11.337-5.389 2.763-8.264 4.244-8.264 4.244L904.997 586.856z"/><path fill="#683e57" d="M927.861,2218.833c0,0,0.081,1.751,0.234,5.037c0.217,3.25,0.533,8.034,0.934,14.117
		c0.885,12.24,2.356,29.751,5.122,50.665c2.32,20.96,6.107,45.286,10.936,71.174c2.749,12.88,4.757,26.348,8.02,39.779
		c1.499,6.742,3.01,13.539,4.526,20.364c1.752,6.761,3.507,13.557,5.263,20.345c3.308,13.639,7.496,27.015,11.463,40.23
		c3.578,13.341,8.245,26.095,12.344,38.57c3.796,12.602,8.597,24.344,12.741,35.654c2.044,5.668,4.035,11.183,5.957,16.518
		c2.184,5.235,4.292,10.281,6.319,15.127c4.057,9.713,7.78,18.623,11.084,26.511c3.566,7.781,6.68,14.561,9.243,20.147
		c5.163,11.166,7.889,17.701,7.889,17.701l-15.06,8.413c0,0-3.85-6.073-10.196-16.978c-3.19-5.443-7.067-12.06-11.508-19.65
		c-4.36-7.646-8.376-16.709-13.255-26.376c-2.387-4.866-4.869-9.929-7.443-15.174c-2.314-5.352-4.706-10.894-7.165-16.582
		c-4.722-11.463-9.979-23.476-14.317-36.294c-4.399-12.791-9.306-25.907-13.146-39.581c-4.04-13.611-8.039-27.476-11.275-41.529
		c-1.705-7.005-3.407-14.01-5.104-20.987c-1.462-7.024-2.915-14.027-4.355-20.97c-3.041-13.854-5.253-27.638-7.414-40.97
		c-3.81-26.736-6.598-51.775-8.051-73.321c-1.468-21.547-1.603-39.572-1.652-52.191c0.058-6.319,0.212-11.292,0.37-14.767
		c0.158-3.385,0.244-5.191,0.244-5.191L927.861,2218.833z"/></svg>